<svg id="Capa_1" enable-background="new 0 0 512.041 512.041" height="512" viewBox="0 0 512.041 512.041" width="512" xmlns="http://www.w3.org/2000/svg"><g><g><g><g><path d="m19.564 204.821v135.499c0 40.23 32.613 72.843 72.843 72.843h118.27c40.23 0 72.843-32.613 72.843-72.843v-135.499z" fill="#3e5959"/></g><g><path d="m283.525 204.818v135.503c0 40.233-32.618 72.844-72.844 72.844h-19.87c40.226 0 72.844-32.611 72.844-72.844v-135.503z" fill="#384949"/></g></g><g><path d="m258.353 259.394h-1.388v-44.225h-210.846v44.225h-1.388c-12.932 0-23.416 10.484-23.416 23.416 0 12.932 10.484 23.416 23.416 23.416h1.388v.75c0 42.03 34.072 76.102 76.102 76.102h58.642c42.03 0 76.102-34.072 76.102-76.102v-.75h1.388c12.932 0 23.416-10.484 23.416-23.416 0-12.932-10.484-23.416-23.416-23.416z" fill="#fed2a4"/></g><g><path d="m281.769 282.811c0 12.935-10.482 23.416-23.416 23.416h-1.385v.751c0 42.026-34.073 76.099-76.099 76.099h-18.572c42.034 0 76.099-34.073 76.099-76.099v-91.809h18.572v44.225h1.385c6.467 0 12.317 2.62 16.557 6.86 4.238 4.24 6.859 10.09 6.859 16.557z" fill="#ffbd86"/></g><g><path d="m212.15 504.541v-55.814c0-12.731-6.247-24.915-16.571-32.362-5.217-3.763-11.328-6.228-17.699-7.125-8.261-1.163-8.371-.912-8.371-9.563 0-.023 0-16.599 0-16.599h-35.935v16.599c0 8.651-.11 8.4-8.371 9.563-6.371.897-12.481 3.362-17.699 7.125-10.325 7.447-16.571 19.631-16.571 32.362v55.814z" fill="#fed2a4"/></g><g><g><path d="m283.353 208.157v-6.593c0-55.817-45.249-101.066-101.066-101.066h-61.491c-55.817 0-101.066 45.249-101.066 101.066v70.165s68.167 5.128 84.942-50.44c.991-3.281 5.523-3.569 6.893-.427 9.902 22.708 45.297 62.909 171.787 55.286v-67.991z" fill="#3e5959"/></g></g><g><g><path d="m283.352 201.561v74.587c-6.906.416-13.539.688-19.908.832v-70.51c0-29.008-11.762-55.269-30.77-74.285-19.016-19.008-45.277-30.77-74.285-30.77l23.894-.915c27.911 0 53.182 11.316 71.471 29.597 18.29 18.29 29.598 43.561 29.598 71.464z" fill="#384949"/></g></g><g><path d="m212.146 448.724v55.817h-121.212v-55.817c0-12.724 6.242-24.918 16.572-32.362 5.22-3.757 11.332-6.222 17.694-7.124 4.729-.661 6.793-.872 7.675-2.545 2.024 2.324 4.679 4.418 8.156 5.992 6.643 3.016 14.378 3.016 21.02 0 3.477-1.573 6.132-3.667 8.156-5.992.882 1.673 2.946 1.884 7.675 2.545 6.372.902 12.484 3.366 17.694 7.124 10.329 7.444 16.57 19.638 16.57 32.362z" fill="#e94444"/></g><g><path d="m212.146 448.725v55.817h-20.038v-55.817c0-12.724-6.242-24.918-16.572-32.362-3.176-2.284-6.683-4.098-10.38-5.36 2.014-1.262 3.677-2.735 5.05-4.308.882 1.673 2.946 1.884 7.675 2.545 6.372.902 12.484 3.366 17.694 7.124 10.33 7.443 16.571 19.637 16.571 32.361z" fill="#d83131"/></g></g><g><g><g><path d="m184.954 23.019v160.551c0 8.571 6.948 15.519 15.519 15.519h19.764c2.77 0 5.208 1.83 5.98 4.491l10.801 37.198c1.363 4.695 7.356 6.06 10.618 2.419l37.655-42.035c1.181-1.319 2.868-2.072 4.638-2.072h187.029c8.571 0 15.519-6.948 15.519-15.519v-160.552c0-8.571-6.948-15.519-15.519-15.519h-276.485c-8.571 0-15.519 6.948-15.519 15.519z" fill="#eaf6ff"/></g></g><g><g><path d="m492.473 23.02v160.547c0 8.576-6.943 15.52-15.52 15.52h-20.038c8.576 0 15.52-6.943 15.52-15.52v-160.547c0-8.576-6.943-15.52-15.52-15.52h20.038c8.577.001 15.52 6.944 15.52 15.52z" fill="#d8ecfe"/></g></g><g><path d="m256.623 45.419 6.236 12.635c.525 1.063 1.539 1.8 2.712 1.97l13.943 2.026c2.954.429 4.134 4.06 1.996 6.144l-10.089 9.835c-.849.828-1.236 2.02-1.036 3.188l2.382 13.887c.505 2.943-2.584 5.186-5.226 3.797l-12.471-6.557c-1.049-.552-2.303-.552-3.352 0l-12.471 6.557c-2.643 1.389-5.731-.855-5.226-3.797l2.382-13.887c.2-1.168-.187-2.361-1.036-3.188l-10.089-9.835c-2.138-2.084-.958-5.715 1.996-6.144l13.943-2.026c1.173-.17 2.187-.907 2.712-1.97l6.236-12.635c1.319-2.677 5.136-2.677 6.458 0z" fill="#f4d902"/></g><g><path d="m341.946 45.419 6.236 12.635c.525 1.063 1.539 1.8 2.712 1.97l13.943 2.026c2.954.429 4.134 4.06 1.996 6.144l-10.089 9.835c-.849.828-1.236 2.02-1.036 3.188l2.382 13.887c.505 2.943-2.584 5.186-5.226 3.797l-12.471-6.557c-1.049-.552-2.303-.552-3.352 0l-12.471 6.557c-2.643 1.389-5.731-.855-5.226-3.797l2.382-13.887c.2-1.168-.187-2.361-1.036-3.188l-10.089-9.835c-2.138-2.084-.958-5.715 1.996-6.144l13.943-2.026c1.173-.17 2.187-.907 2.712-1.97l6.236-12.635c1.319-2.677 5.136-2.677 6.458 0z" fill="#f4d902"/></g><g><path d="m427.269 45.419 6.236 12.635c.525 1.063 1.539 1.8 2.712 1.97l13.943 2.026c2.954.429 4.134 4.06 1.996 6.144l-10.089 9.835c-.849.828-1.236 2.02-1.036 3.188l2.382 13.887c.505 2.943-2.584 5.186-5.226 3.797l-12.471-6.557c-1.049-.552-2.303-.552-3.352 0l-12.471 6.557c-2.643 1.389-5.731-.855-5.226-3.797l2.382-13.887c.2-1.168-.187-2.361-1.036-3.188l-10.089-9.835c-2.138-2.084-.958-5.715 1.996-6.144l13.943-2.026c1.173-.17 2.187-.907 2.712-1.97l6.236-12.635c1.319-2.677 5.136-2.677 6.458 0z" fill="#f4d902"/></g><g><g><path d="m442.067 78.026c-.851.832-1.232 2.024-1.032 3.196l2.375 13.887c.511 2.936-2.585 5.18-5.22 3.797l-12.133-6.382c.311-.661.421-1.423.281-2.244l-2.555-14.919c-.21-1.252.201-2.535 1.112-3.427l10.841-10.56c.391-.391.681-.832.882-1.293l13.546 1.974c2.956.421 4.128 4.058 1.994 6.142z" fill="#e3ca00"/></g></g><g><g><path d="m356.744 78.025c-.851.832-1.232 2.024-1.032 3.196l2.375 13.887c.511 2.936-2.585 5.18-5.22 3.797l-12.133-6.382c.311-.661.421-1.423.281-2.244l-2.555-14.919c-.21-1.252.201-2.535 1.112-3.427l10.841-10.56c.391-.391.681-.832.882-1.293l13.546 1.974c2.956.421 4.128 4.058 1.994 6.142z" fill="#e3ca00"/></g></g><g><g><path d="m271.421 78.025c-.851.832-1.232 2.024-1.032 3.196l2.375 13.887c.511 2.936-2.585 5.18-5.22 3.797l-12.133-6.382c.311-.661.421-1.423.281-2.244l-2.555-14.919c-.21-1.252.201-2.535 1.112-3.427l10.841-10.56c.391-.391.681-.832.882-1.293l13.546 1.974c2.956.421 4.128 4.058 1.994 6.142z" fill="#e3ca00"/></g></g><g><path d="m168.497 329.821c-3.815-1.613-8.216.171-9.829 3.986-1.213 2.87-4.011 4.724-7.126 4.724s-5.913-1.854-7.126-4.724c-1.614-3.815-6.015-5.601-9.829-3.986-3.815 1.614-5.6 6.014-3.986 9.829 3.566 8.432 11.787 13.881 20.941 13.881 9.155 0 17.375-5.449 20.941-13.881 1.614-3.815-.171-8.215-3.986-9.829z"/><path d="m130.191 293.16c0-4.142-3.358-7.5-7.5-7.5s-7.5 3.358-7.5 7.5v12.423c0 4.142 3.358 7.5 7.5 7.5s7.5-3.358 7.5-7.5z"/><path d="m187.893 305.583v-12.423c0-4.142-3.358-7.5-7.5-7.5s-7.5 3.358-7.5 7.5v12.423c0 4.142 3.358 7.5 7.5 7.5s7.5-3.357 7.5-7.5z"/><path d="m476.958 0h-276.485c-12.693 0-23.019 10.326-23.019 23.019v69.979h-56.658c-59.863 0-108.565 48.702-108.565 108.565l-.168 138.757c0 44.301 36.042 80.343 80.343 80.343h.268c-5.911 8.049-9.241 17.869-9.241 28.063v4.211c0 4.142 3.358 7.5 7.5 7.5s7.5-3.358 7.5-7.5v-4.211c0-10.377 5.031-20.201 13.459-26.28 4.236-3.056 8.544-4.955 13.7-5.681 0 0 4.824-.751 6.069-.994 1.907 1.458 3.997 2.714 6.267 3.741 8.351 3.779 18.769 3.837 27.213.005 2.276-1.03 4.369-2.287 6.278-3.747 0 0 3.011.558 4.705.795 5.432.759 10.596 2.655 15.067 5.88 8.428 6.079 13.459 15.902 13.459 26.279v48.314h-21.82v-16.125l3.968-3.208c3.221-2.604 3.721-7.327 1.117-10.547-2.605-3.222-7.328-3.721-10.547-1.117l-6.752 5.459c-1.761 1.424-2.785 3.567-2.785 5.832v19.706h-32.57v-19.706c0-2.265-1.023-4.408-2.785-5.833l-6.753-5.459c-3.221-2.604-7.943-2.104-10.548 1.117-2.604 3.221-2.104 7.943 1.117 10.548l3.968 3.208v16.125h-21.826v-8.967c0-4.142-3.358-7.5-7.5-7.5s-7.5 3.358-7.5 7.5v16.467c0 4.142 3.358 7.5 7.5 7.5h121.216c4.142 0 7.5-3.358 7.5-7.5v-55.814c0-10.194-3.33-20.014-9.241-28.063h.267c44.301 0 80.343-36.042 80.343-80.343l-.167-133.731h127.667c4.142 0 7.5-3.358 7.5-7.5s-3.358-7.5-7.5-7.5h-128.59c-3.898 0-7.625 1.665-10.225 4.568l-36.125 40.326-10.161-34.994c-1.692-5.829-7.113-9.899-13.183-9.899h-19.764c-4.422 0-8.019-3.597-8.019-8.019v-160.55c0-4.422 3.597-8.019 8.019-8.019h276.485c4.422 0 8.019 3.597 8.019 8.019v160.551c0 4.422-3.597 8.019-8.019 8.019h-23.711c-4.142 0-7.5 3.358-7.5 7.5s3.358 7.5 7.5 7.5h23.711c12.693 0 23.019-10.326 23.019-23.019v-160.551c.003-12.693-10.324-23.019-23.017-23.019zm-350.89 401.544c-5.199.752-10.186 2.043-14.876 4.12h-18.785c-36.03 0-65.343-29.313-65.343-65.343v-32.161c3.476 2.43 7.469 4.169 11.782 5.004 3.179 43.219 39.359 77.414 83.375 77.414h3.853c-.001 4.957-.002 10.608-.006 10.966zm32.883 4.312c-4.64 2.106-10.18 2.106-14.829-.004-1.149-.52-2.184-1.122-3.124-1.814.076-1.339.077-13.46.077-13.46h20.935s.001 12.119.077 13.457c-.943.693-1.981 1.298-3.136 1.821zm-36.73-30.278c-37.827 0-68.602-30.775-68.602-68.602v-.75c0-4.142-3.358-7.5-7.5-7.5h-1.388c-8.776 0-15.916-7.14-15.916-15.916 0-1.229.15-2.421.418-3.568 7.25-.312 17.665-1.406 28.807-4.703 24.433-7.23 41.824-21.917 50.776-42.732 14 23.115 50.319 52.785 144.462 52.785 6.673 0 13.655-.157 20.924-.469-.671 8.163-7.517 14.603-15.849 14.603h-1.387c-4.142 0-7.5 3.358-7.5 7.5v.75c0 37.827-30.775 68.602-68.602 68.602zm153.8-35.258c0 36.03-29.313 65.343-65.343 65.343h-18.782c-4.688-2.076-9.673-3.367-14.879-4.12l-.004-10.966h3.851c44.016 0 80.197-34.195 83.375-77.414 4.313-.835 8.306-2.574 11.782-5.004zm-75.548-133.731h18.808l10.534 36.28c1.391 4.787 5.274 8.449 10.135 9.556 1.011.23 2.032.342 3.045.342 3.855 0 7.593-1.627 10.228-4.567l22.631-25.263v46.104c-50.745 2.406-90.744-2.962-118.974-15.974-23.881-11.006-34.084-25.219-38.438-35.204-1.801-4.129-5.758-6.705-10.208-6.705-.227 0-.456.007-.685.021-4.736.28-8.683 3.397-10.056 7.942-6.142 20.345-20.709 34.109-43.299 40.911-10.573 3.184-20.596 4.07-26.963 4.267v-62.735c0-51.592 41.973-93.565 93.565-93.565h56.658v75.571c0 12.693 10.326 23.019 23.019 23.019z"/><path d="m289.554 62.184c-1.315-4.049-4.75-6.944-8.962-7.556l-11.915-1.731-5.329-10.797c-1.884-3.817-5.699-6.188-9.956-6.188s-8.072 2.371-9.956 6.188l-5.329 10.797-11.915 1.731c-4.213.612-7.647 3.507-8.962 7.556-1.316 4.049-.239 8.41 2.809 11.381l8.622 8.404-2.036 11.868c-.719 4.196.974 8.356 4.417 10.858 1.946 1.414 4.223 2.131 6.515 2.131 1.764 0 3.538-.426 5.176-1.287l10.658-5.603 10.657 5.603c3.768 1.981 8.248 1.658 11.692-.844s5.136-6.664 4.417-10.858l-2.035-11.868 8.622-8.404c3.049-2.971 4.126-7.332 2.81-11.381zm-23.367 10.473c-2.619 2.551-3.813 6.226-3.194 9.828l1.046 6.103-5.479-2.881c-3.236-1.701-7.099-1.701-10.333 0l-5.481 2.881 1.046-6.101c.619-3.603-.575-7.277-3.192-9.828l-4.434-4.322 6.127-.89c3.617-.525 6.743-2.796 8.359-6.074l2.74-5.552 2.74 5.551c1.617 3.278 4.743 5.549 8.36 6.074l6.127.891z"/><path d="m374.877 62.184c-1.315-4.048-4.75-6.943-8.961-7.555l-11.916-1.732-5.329-10.797c-1.884-3.817-5.699-6.188-9.956-6.188s-8.072 2.371-9.956 6.188l-5.329 10.797-11.915 1.731c-4.213.612-7.647 3.507-8.962 7.555-1.316 4.049-.24 8.41 2.809 11.381l8.622 8.405-2.035 11.866c-.72 4.196.973 8.357 4.417 10.859 1.946 1.414 4.223 2.132 6.516 2.132 1.764 0 3.538-.426 5.176-1.287l10.657-5.603 10.657 5.602c3.767 1.98 8.248 1.658 11.693-.844 3.444-2.502 5.136-6.664 4.417-10.859l-2.035-11.867 8.622-8.405c3.048-2.97 4.124-7.331 2.808-11.379zm-23.367 10.473c-2.618 2.55-3.813 6.224-3.195 9.829l1.047 6.103-5.48-2.881c-3.235-1.7-7.098-1.701-10.333 0l-5.481 2.881 1.047-6.104c.618-3.603-.577-7.277-3.193-9.825l-4.434-4.322 6.127-.89c3.616-.525 6.741-2.795 8.36-6.074l2.74-5.552 2.741 5.554c1.618 3.277 4.743 5.547 8.359 6.072l6.127.891z"/><path d="m460.2 62.184c-1.315-4.048-4.75-6.943-8.962-7.555l-11.915-1.731-5.329-10.798c-1.884-3.817-5.699-6.188-9.956-6.188s-8.072 2.371-9.956 6.188l-5.329 10.797-11.915 1.731c-4.213.612-7.647 3.507-8.962 7.556-1.315 4.048-.239 8.409 2.809 11.38l8.622 8.405-2.035 11.866c-.72 4.196.973 8.357 4.417 10.859 1.946 1.414 4.223 2.132 6.515 2.132 1.764 0 3.538-.426 5.176-1.287l10.658-5.603 10.657 5.603c3.768 1.981 8.248 1.658 11.692-.844s5.137-6.663 4.417-10.859l-2.036-11.867 8.623-8.405c3.049-2.971 4.125-7.332 2.809-11.38zm-23.368 10.475c-2.618 2.551-3.812 6.226-3.193 9.827l1.047 6.103-5.48-2.881c-1.618-.851-3.392-1.276-5.167-1.276s-3.549.425-5.167 1.275l-5.48 2.881 1.047-6.104c.618-3.603-.577-7.277-3.193-9.825l-4.434-4.322 6.127-.89c3.617-.525 6.743-2.796 8.359-6.074l2.74-5.552 2.741 5.554c1.618 3.277 4.743 5.546 8.358 6.072l6.127.891z"/><path d="m460.748 134.122c0-4.142-3.358-7.5-7.5-7.5h-231.216c-4.142 0-7.5 3.358-7.5 7.5s3.358 7.5 7.5 7.5h231.216c4.142 0 7.5-3.358 7.5-7.5z"/><path d="m222.032 155.678c-4.142 0-7.5 3.358-7.5 7.5s3.358 7.5 7.5 7.5h115.608c4.142 0 7.5-3.358 7.5-7.5s-3.358-7.5-7.5-7.5z"/></g></g></g></svg>