<svg height="512pt" viewBox="0 -13 512.00237 512" width="512pt" xmlns="http://www.w3.org/2000/svg"><path d="m50.847656 336.011719c22.667969-.175781 41.242188 25.203125 41.242188 25.203125s-18.175782 25.671875-40.84375 25.847656c-22.667969.175781-41.242188-25.207031-41.242188-25.207031s18.175782-25.667969 40.84375-25.84375zm0 0" fill="#91d9b9"/><path d="m108.105469 305.128906c18.648437-17.59375 53.574219-10.855468 53.574219-10.855468s4.691406 35.257812-13.953126 52.851562c-18.648437 17.589844-53.574218 10.851562-53.574218 10.851562s-4.691406-35.257812 13.953125-52.847656zm0 0" fill="#78d0a9"/><path d="m113.5 419.453125c24.382812-7.636719 52.746094 13.621094 52.746094 13.621094s-11.160156 33.648437-35.539063 41.285156c-24.378906 7.640625-52.746093-13.621094-52.746093-13.621094s11.160156-33.644531 35.539062-41.285156zm0 0" fill="#78d0a9"/><path d="m164.535156 380.085938c12.277344-18.75 43.34375-20.125 43.34375-20.125s11.160156 29.023437-1.117187 47.773437c-12.277344 18.75-43.34375 20.121094-43.34375 20.121094s-11.160157-29.023438 1.117187-47.769531zm0 0" fill="#91d9b9"/><path d="m102.878906 241.515625c1.777344 27.332031-27.558594 51.492187-27.558594 51.492187s-32.21875-20.15625-33.996093-47.484374c-1.78125-27.332032 27.554687-51.492188 27.554687-51.492188s32.21875 20.152344 34 47.484375zm0 0" fill="#78d0a9"/><path d="m461.15625 336.011719c-22.667969-.175781-41.242188 25.203125-41.242188 25.203125s18.175782 25.671875 40.847657 25.847656c22.667969.175781 41.242187-25.207031 41.242187-25.207031s-18.179687-25.667969-40.847656-25.84375zm0 0" fill="#91d9b9"/><path d="m403.898438 305.128906c-18.644532-17.59375-53.570313-10.855468-53.570313-10.855468s-4.691406 35.257812 13.953125 52.851562c18.648438 17.589844 53.574219 10.851562 53.574219 10.851562s4.691406-35.257812-13.957031-52.847656zm0 0" fill="#78d0a9"/><path d="m398.503906 419.453125c-24.378906-7.636719-52.746094 13.621094-52.746094 13.621094s11.164063 33.648437 35.542969 41.285156c24.378907 7.640625 52.742188-13.621094 52.742188-13.621094s-11.160157-33.644531-35.539063-41.285156zm0 0" fill="#78d0a9"/><path d="m347.46875 380.085938c-12.277344-18.75-43.34375-20.125-43.34375-20.125s-11.160156 29.023437 1.117188 47.773437c12.277343 18.75 43.34375 20.121094 43.34375 20.121094s11.160156-29.023438-1.117188-47.769531zm0 0" fill="#91d9b9"/><path d="m409.128906 241.515625c-1.78125 27.332031 27.554688 51.492187 27.554688 51.492187s32.21875-20.15625 34-47.484374c1.777344-27.332032-27.558594-51.492188-27.558594-51.492188s-32.21875 20.152344-33.996094 47.484375zm0 0" fill="#78d0a9"/><path d="m234.207031 226.089844v37.722656h43.589844v-37.722656" fill="#ffd89e"/><path d="m256.003906 226.027344c-51.628906 0-93.480468-41.855469-93.480468-93.480469v-122.546875h186.960937v122.546875c0 51.625-41.855469 93.480469-93.480469 93.480469zm0 0" fill="#ffcb7c"/><path d="m310.183594 306.007812h-108.363282v-28.785156c0-7.40625 6.003907-13.410156 13.410157-13.410156h81.542969c7.40625 0 13.410156 6.003906 13.410156 13.410156zm0 0" fill="#c4ead9"/><path d="m260.875 76.019531 9.96875 16.277344 18.5625 4.453125c4.148438.996094 5.78125 6.019531 3.007812 9.265625l-12.398437 14.511719 1.5 19.027344c.335937 4.253906-3.9375 7.359374-7.878906 5.726562l-17.632813-7.308594-17.632812 7.308594c-3.941406 1.632812-8.21875-1.472656-7.882813-5.726562l1.5-19.027344-12.398437-14.511719c-2.769532-3.246094-1.136719-8.269531 3.011718-9.265625l18.558594-4.453125 9.972656-16.277344c2.226563-3.636719 7.511719-3.636719 9.742188 0zm0 0" fill="#f9f9f9"/><path d="m389.023438 0h-266.039063c-5.523437 0-10 4.476562-10 10v84.566406c0 2.914063 1.269531 5.683594 3.480469 7.582032l34.496094 29.644531c.496093.425781 1.019531.792969 1.5625 1.101562.152343 45.820313 30.238281 84.722657 71.683593 98.132813v22.785156h-8.976562c-12.90625 0-23.410157 10.503906-23.410157 23.410156v28.785156c0 5.519532 4.476563 10 10 10h108.363282c5.523437 0 10-4.480468 10-10v-28.785156c0-12.90625-10.5-23.410156-23.410156-23.410156h-8.972657v-22.785156c41.445313-13.410156 71.53125-52.3125 71.683594-98.132813.542969-.308593 1.066406-.675781 1.558594-1.101562l34.496093-29.644531c2.210938-1.898438 3.484376-4.667969 3.484376-7.582032v-84.566406c0-5.523438-4.480469-10-10-10zm-256.039063 89.972656v-69.972656h19.539063v86.765625zm167.199219 187.25v18.785156h-88.363282v-18.785156c0-1.878906 1.53125-3.410156 3.410157-3.410156h81.542969c1.882812 0 3.410156 1.53125 3.410156 3.410156zm-32.386719-23.410156h-23.589844v-18.457031c3.871094.441406 7.808594.667969 11.792969.667969 3.988281 0 7.925781-.226563 11.796875-.667969zm71.6875-121.265625c0 46.03125-37.449219 83.480469-83.480469 83.480469s-83.480468-37.449219-83.480468-83.480469v-112.546875h166.960937zm39.539063-42.574219-19.539063 16.792969v-86.765625h19.539063zm0 0"/><path d="m275.847656 155.730469c-2.03125 0-4.082031-.398438-6.039062-1.210938l-13.804688-5.722656-13.804687 5.722656c-5.09375 2.109375-10.792969 1.4375-15.253907-1.804687-4.457031-3.238282-6.859374-8.453125-6.425781-13.949219l1.175781-14.894531-9.707031-11.359375c-3.582031-4.191407-4.699219-9.820313-3-15.0625 1.703125-5.242188 5.921875-9.140625 11.28125-10.425781l14.527344-3.484376 7.808594-12.742187c2.878906-4.699219 7.886719-7.503906 13.398437-7.503906 5.511719 0 10.519532 2.804687 13.398438 7.503906l7.804687 12.742187 14.53125 3.484376c5.359375 1.289062 9.574219 5.183593 11.277344 10.425781 1.703125 5.238281.582031 10.871093-3 15.0625l-9.707031 11.359375 1.175781 14.898437c.433594 5.492188-1.96875 10.707031-6.425781 13.945313-2.742188 1.992187-5.957032 3.015625-9.210938 3.015625zm-44.105468-50.890625 7.851562 9.191406c1.722656 2.015625 2.574219 4.636719 2.363281 7.28125l-.949219 12.050781 11.164063-4.628906c2.453125-1.015625 5.207031-1.015625 7.660156 0l11.164063 4.628906-.949219-12.050781c-.210937-2.644531.640625-5.265625 2.363281-7.28125l7.851563-9.191406-11.75-2.820313c-2.582031-.617187-4.8125-2.238281-6.195313-4.5l-6.3125-10.304687-6.3125 10.304687c-1.386718 2.265625-3.617187 3.882813-6.195312 4.503907zm55.328124 1.632812h.011719zm0 0"/><path d="m211.0625 430.574219c-4.660156-.183594-9.347656-.726563-14.035156-1.621094 6.894531-3.605469 13.464844-8.65625 18.101562-15.742187 14.910156-22.769532 2.613282-55.457032 2.082032-56.839844-1.542969-4.011719-5.5-6.589844-9.773438-6.398438-1.480469.0625-36.355469 1.863282-51.269531 24.632813-6.660157 10.175781-7.894531 22.328125-7.167969 32.78125-8.371094-6.085938-16.351562-13.273438-23.722656-21.449219-4.8125-5.339844-9.238282-10.941406-13.246094-16.738281 13.238281-.324219 30.386719-3.324219 42.554688-14.800781 22.117187-20.867188 17.222656-59.796876 17.003906-61.441407-.566406-4.265625-3.796875-7.6875-8.019532-8.5-1.628906-.316406-40.207031-7.46875-62.328124 13.398438-5.882813 5.550781-9.855469 12.378906-12.511719 19.445312-1.550781-6.792969-2.535157-13.59375-2.914063-20.320312 8.886719-8.546875 28.699219-30.621094 27.039063-56.113281-2.085938-32.074219-37.183594-54.378907-38.675781-55.3125-3.644532-2.28125-8.339844-1.976563-11.660157.757812-1.359375 1.121094-33.265625 27.785156-31.175781 59.859375 1.683594 25.890625 24.871094 45.414063 34.535156 52.472656.65625 10.785157 2.640625 21.710938 5.835938 32.519531-6.214844-3.0625-13.1875-5.152343-20.636719-5.152343-.101563 0-.207031 0-.3125 0-27.472656.214843-48.0625 28.847656-48.925781 30.066406-2.484375 3.507813-2.449219 8.214844.089844 11.683594.878906 1.203125 21.753906 29.304687 49.082031 29.300781h.308593c17.800782-.136719 32.707032-12.203125 41.238282-21.015625 5.265625 8.128906 11.242187 15.933594 17.863281 23.28125 2.757813 3.058594 5.597656 6 8.507813 8.8125-2.8125.324219-5.628907.898437-8.417969 1.773437-28.9375 9.0625-41.523438 46.105469-42.042969 47.675782-1.355469 4.082031.050781 8.574218 3.492188 11.152344 1.109374.832031 23.355468 17.257812 47.550781 17.257812 4.699219 0 9.476562-.621094 14.183593-2.097656 21.785157-6.824219 34.304688-29.515625 39.382813-40.976563 12.257813 4.535157 24.796875 7.148438 37.203125 7.632813.132812.003906.265625.007812.398438.007812 5.339843 0 9.773437-4.226562 9.984374-9.613281.214844-5.519531-4.082031-10.164063-9.601562-10.378906zm-38.160156-45.011719c5.75-8.78125 18.640625-12.957031 27.804687-14.65625 2.113281 9.089844 3.4375 22.570312-2.3125 31.351562s-18.640625 12.957032-27.808593 14.652344c-2.109376-9.089844-3.433594-22.566406 2.316406-31.347656zm-57.933594-73.160156c9.464844-8.929688 26.324219-9.941406 37.257812-9.210938.089844 10.960938-1.902343 27.730469-11.363281 36.65625-9.464843 8.929688-26.332031 9.941406-37.257812 9.210938-.09375-10.960938 1.902343-27.730469 11.363281-36.65625zm-63.800781 64.660156c-.050781 0-.101563 0-.15625 0-10.632813 0-21.359375-8.527344-27.90625-15.28125 5.945312-6.375 16.550781-15.683594 27.820312-15.769531h.15625c10.644531 0 21.386719 8.546875 27.933594 15.304687-6.480469 6.902344-17.152344 15.664063-27.847656 15.746094zm.132812-132.191406c-.933593-14.332032 10.207031-29.34375 18.382813-37.871094 8.300781 6.652344 22.226562 19.984375 23.214844 35.164062.933593 14.335938-10.207032 29.34375-18.378907 37.875-8.300781-6.652343-22.230469-19.984374-23.21875-35.167968zm76.414063 219.945312c-12.351563 3.871094-27.878906-2.550781-37.351563-7.964844 4.695313-9.855468 13.78125-23.988281 26.128907-27.855468 12.351562-3.867188 27.875 2.554687 37.351562 7.964844-4.695312 9.859374-13.78125 23.988281-26.128906 27.855468zm0 0"/><path d="m510.164062 356.078125c-.863281-1.21875-21.453124-29.851563-48.929687-30.066406-.101563 0-.207031 0-.308594 0-7.449219 0-14.421875 2.089843-20.636719 5.152343 3.195313-10.808593 5.179688-21.734374 5.832032-32.519531 9.667968-7.058593 32.855468-26.582031 34.539062-52.472656 2.089844-32.074219-29.816406-58.738281-31.175781-59.859375-3.320313-2.730469-8.015625-3.039062-11.660156-.757812-1.496094.933593-36.585938 23.238281-38.675781 55.3125-1.660157 25.492187 18.152343 47.566406 27.039062 56.117187-.378906 6.722656-1.363281 13.523437-2.914062 20.316406-2.65625-7.066406-6.628907-13.894531-12.511719-19.445312-22.121094-20.867188-60.695313-13.714844-62.328125-13.398438-4.222656.8125-7.453125 4.238281-8.019532 8.5-.21875 1.644531-5.113281 40.574219 17.003907 61.441407 12.167969 11.480468 29.316406 14.476562 42.554687 14.800781-4.007812 5.796875-8.433594 11.398437-13.246094 16.738281-7.371093 8.175781-15.351562 15.363281-23.722656 21.449219.726563-10.453125-.507812-22.605469-7.167968-32.777344 0 0 0 0 0-.003906-14.914063-22.769531-49.789063-24.566407-51.265626-24.632813-4.296874-.175781-8.234374 2.386719-9.777343 6.402344-.53125 1.378906-12.828125 34.066406 2.082031 56.839844 4.640625 7.082031 11.207031 12.136718 18.105469 15.738281-4.691407.894531-9.378907 1.441406-14.035157 1.621094-5.519531.214843-9.820312 4.863281-9.605468 10.382812.210937 5.382813 4.640625 9.609375 9.984375 9.609375.132812 0 .265625-.003906.398437-.007812 12.40625-.480469 24.941406-3.09375 37.203125-7.632813 5.078125 11.464844 17.59375 34.152344 39.382813 40.976563 4.707031 1.476562 9.480468 2.097656 14.183594 2.097656 24.191406 0 46.4375-16.425781 47.546874-17.257812 3.441407-2.578126 4.851563-7.070313 3.496094-11.152344-.523437-1.570313-13.109375-38.609375-42.042968-47.675782-2.792969-.875-5.609376-1.449218-8.417969-1.773437 2.910156-2.8125 5.746093-5.75 8.503906-8.8125 6.621094-7.347656 12.597656-15.152344 17.867187-23.28125 8.527344 8.8125 23.433594 20.878906 41.234376 21.015625.105468.003906.207031.003906.3125.003906 27.320312 0 48.199218-28.101562 49.078124-29.300781 2.542969-3.472656 2.578126-8.179687.09375-11.6875zm-150.382812-52.886719c10.9375-.726562 27.796875.285156 37.253906 9.207032 9.453125 8.914062 11.453125 25.65625 11.367188 36.613281-9.929688.671875-27.265625.261719-37.257813-9.164063-9.464843-8.925781-11.457031-25.703125-11.363281-36.65625zm-48.496094 67.75c8.46875 1.539063 21.761719 5.371094 27.820313 14.621094 5.75 8.785156 4.421875 22.269531 2.3125 31.347656-9.175781-1.699218-22.058594-5.871094-27.808594-14.652344-5.746094-8.773437-4.425781-22.238281-2.324219-31.316406zm110.335938 85.867188c-8.601563 4.929687-24.289063 12.097656-37.332032 8.007812-12.332031-3.863281-21.410156-17.960937-26.105468-27.8125 8.601562-4.929687 24.289062-12.089844 37.332031-8.007812 12.332031 3.863281 21.410156 17.964844 26.105469 27.8125zm-2.515625-214.644532c.933593-14.355468 13.964843-27.8125 23.179687-35.203124 8.183594 8.527343 19.355469 23.558593 18.417969 37.910156-.933594 14.355468-13.960937 27.816406-23.175781 35.207031-8.183594-8.53125-19.355469-23.5625-18.421875-37.914063zm41.894531 134.898438c-.050781 0-.109375 0-.160156 0-10.6875-.082031-21.351563-8.828125-27.824219-15.71875 6.019531-6.25 16.691406-15.332031 27.902344-15.332031h.160156c10.6875.082031 21.351563 8.828125 27.824219 15.71875-6.015625 6.25-16.691406 15.332031-27.902344 15.332031zm0 0"/><path d="m256.003906 456.65625c-4.25 0-8.085937-2.785156-9.464844-6.785156-1.375-3.996094.027344-8.582032 3.378907-11.148438 3.230469-2.472656 7.730469-2.710937 11.222656-.640625 3.59375 2.128907 5.472656 6.441407 4.664063 10.527344-.917969 4.617187-5.09375 8.046875-9.800782 8.046875zm0 0"/></svg>