<svg id="Capa_1" enable-background="new 0 0 512 512" height="512" viewBox="0 0 512 512" width="512" xmlns="http://www.w3.org/2000/svg"><g><g><g><path d="m368.63 445.083 4.986-15.705v-401.956c0-11.014-8.929-19.943-19.943-19.943h-283.512c-11.014 0-19.943 8.929-19.943 19.943v401.956l4.986 15.705z" fill="#61a2f9"/></g><g><path d="m353.673 7.479h-15.907v437.604h30.864l4.986-15.705v-401.956c0-11.014-8.929-19.943-19.943-19.943z" fill="#4a81f6"/></g><g><path d="m50.218 429.378v55.2c0 11.014 8.929 19.943 19.943 19.943h283.512c11.014 0 19.943-8.929 19.943-19.943v-55.2z" fill="#dae7ef"/></g><g><path d="m337.766 429.378v19.35c0 11.014-8.929 19.943-19.943 19.943h-267.605v15.907c0 11.014 8.929 19.943 19.943 19.943h283.512c11.014 0 19.943-8.929 19.943-19.943v-55.2z" fill="#c1d5e4"/></g></g><g><circle cx="376.415" cy="376.815" fill="#dd5790" r="85.367"/></g><g><path d="m423.607 305.683c8.988 13.52 14.235 29.741 14.235 47.193 0 47.147-38.22 85.367-85.367 85.367-17.452 0-33.673-5.247-47.193-14.235 15.293 23.005 41.436 38.174 71.131 38.174 47.147 0 85.367-38.22 85.367-85.367.001-29.695-15.168-55.839-38.173-71.132z" fill="#da387d"/></g><g><path d="m414.92 371.618-58.472-33.759c-4-2.309-9 .577-9 5.196v67.518c0 4.619 5 7.506 9 5.196l58.472-33.759c4-2.309 4-8.082 0-10.392z" fill="#f6f9f9"/></g><g><g><path d="m261.25 310.857h-98.665c-5.523 0-10-4.477-10-10v-71.267h118.665v71.266c0 5.523-4.477 10.001-10 10.001z" fill="#407093"/></g><g><path d="m239.004 229.59v71.295c0 5.507-4.465 9.971-9.971 9.971h32.246c5.507 0 9.971-4.465 9.971-9.971v-71.295z" fill="#2b4d66"/></g><g><path d="m203.255 169.264-114.983 44.315c-6.259 2.412-6.259 11.268 0 13.68l114.984 44.315c5.575 2.149 11.749 2.149 17.324 0l114.984-44.315c6.259-2.412 6.259-11.268 0-13.68l-114.984-44.315c-5.576-2.149-11.75-2.149-17.325 0z" fill="#407093"/></g><g><path d="m335.563 213.579-22.857-8.809-92.126 35.506c-5.575 2.148-11.749 2.148-17.324 0l-92.126-35.506-22.857 8.809c-6.259 2.412-6.259 11.268 0 13.68l114.984 44.315c5.575 2.148 11.749 2.148 17.324 0l114.984-44.315c6.257-2.412 6.257-11.268-.002-13.68z" fill="#2b4d66"/></g></g><g><circle cx="128.988" cy="111.327" fill="#dae7ef" r="22.489"/></g><g><path d="m136.883 90.267c.922 2.457 1.429 5.117 1.429 7.896 0 12.42-10.069 22.489-22.489 22.489-2.779 0-5.439-.507-7.896-1.429 3.198 8.525 11.419 14.593 21.06 14.593 12.42 0 22.489-10.069 22.489-22.489.001-9.641-6.068-17.862-14.593-21.06z" fill="#c1d5e4"/></g><g><path d="m236.037 461.465h-48.239c-4.131 0-7.479 3.348-7.479 7.479s3.348 7.479 7.479 7.479h48.239c4.131 0 7.479-3.348 7.479-7.479s-3.349-7.479-7.479-7.479z"/><path d="m381.095 284.087v-256.666c0-15.119-12.302-27.421-27.422-27.421h-283.512c-15.119 0-27.421 12.302-27.421 27.421v232.479c0 4.131 3.348 7.479 7.479 7.479s7.479-3.348 7.479-7.479v-232.479c0-6.873 5.591-12.464 12.464-12.464h283.512c6.873 0 12.464 5.591 12.464 12.464v257.12c-46.376 5.131-82.568 44.552-82.568 92.273 0 16.352 4.255 31.727 11.707 45.086h-237.58v-125.822c0-4.131-3.348-7.479-7.479-7.479s-7.479 3.348-7.479 7.479v188.501c0 15.12 12.302 27.421 27.421 27.421h283.512c15.12 0 27.421-12.302 27.421-27.421v-15.04c24.563-1.245 47.799-12.248 64.341-30.624 2.764-3.069 2.515-7.798-.555-10.562-3.067-2.76-7.797-2.516-10.562.555-14.758 16.392-35.863 25.794-57.904 25.794-42.947 0-77.888-34.941-77.888-77.888s34.941-77.887 77.888-77.887 77.888 34.94 77.888 77.887c0 9.203-1.587 18.208-4.718 26.765-1.42 3.88.575 8.174 4.453 9.593 3.881 1.424 8.175-.575 9.593-4.453 3.735-10.209 5.629-20.943 5.629-31.905.002-49.625-39.134-90.281-88.163-92.727zm-14.957 185.001v15.491c0 6.873-5.591 12.464-12.464 12.464h-283.513c-6.873 0-12.464-5.591-12.464-12.464v-47.722h247.962c14.953 17.594 36.334 29.559 60.479 32.231z"/><path d="m360.162 331.368c-4.215-2.434-9.247-2.434-13.461 0-4.215 2.432-6.731 6.791-6.731 11.658v67.577c0 4.867 2.516 9.226 6.731 11.658 2.107 1.217 4.419 1.825 6.731 1.825s4.623-.609 6.731-1.825l58.523-33.788c4.215-2.433 6.732-6.791 6.732-11.659 0-4.866-2.516-9.225-6.731-11.657zm-5.235 76.645v-62.396l54.036 31.199z"/><path d="m76.098 220.42c0 6.174 3.723 11.598 9.484 13.817l22.533 8.684v61.549c-3.568 2.406-5.915 6.485-5.915 11.112 0 3.239 1.15 6.209 3.063 8.524l-23.743 41.125c-2.065 3.577-.839 8.15 2.737 10.216 3.514 2.046 8.139.873 10.216-2.737l13.642-23.628v21.058c0 4.131 3.348 7.479 7.479 7.479s7.479-3.348 7.479-7.479v-21.059l13.643 23.629c2.066 3.577 6.64 4.802 10.216 2.737 3.577-2.065 4.803-6.639 2.737-10.216l-23.744-41.124c1.913-2.316 3.063-5.286 3.063-8.525 0-4.628-2.347-8.707-5.915-11.112v-55.784l22.035 8.492v43.707c0 9.622 7.828 17.45 17.45 17.45h98.721c9.622 0 17.45-7.828 17.45-17.45v-43.707l59.525-22.941c5.761-2.219 9.484-7.643 9.484-13.817 0-6.175-3.722-11.599-9.484-13.82l-60.072-23.151c-3.854-1.487-8.183.435-9.668 4.288-1.486 3.854.434 8.183 4.289 9.668l59.711 23.015-114.624 44.176c-3.852 1.484-8.095 1.484-11.945 0l-114.623-44.179 114.623-44.175c3.851-1.484 8.093-1.485 11.944 0l20.643 7.956c3.853 1.486 8.183-.435 9.668-4.288 1.486-3.854-.434-8.183-4.288-9.668l-20.643-7.956c-7.32-2.822-15.383-2.822-22.703 0l-114.984 44.315c-5.762 2.221-9.484 7.645-9.484 13.819zm135.819 60.249c3.845 0 7.691-.706 11.351-2.116l40.502-15.61v37.942c0 1.375-1.118 2.493-2.493 2.493h-98.721c-1.375 0-2.493-1.118-2.493-2.493v-37.943l40.503 15.61c3.66 1.412 7.506 2.117 11.351 2.117z"/><path d="m202.512 75.903v-26.643c0-4.131-3.348-7.479-7.479-7.479s-7.479 3.348-7.479 7.479v26.642c0 4.131 3.348 7.479 7.479 7.479s7.479-3.348 7.479-7.478z"/><path d="m236.28 75.903v-26.643c0-4.131-3.348-7.479-7.479-7.479s-7.479 3.348-7.479 7.479v26.642c0 4.131 3.348 7.479 7.479 7.479s7.479-3.348 7.479-7.478z"/><path d="m128.988 81.36c-13.943 0-25.693 9.572-29.023 22.489h-6.003c-4.131 0-7.479 3.348-7.479 7.479s3.348 7.479 7.479 7.479h6.003c3.331 12.917 15.08 22.489 29.023 22.489s25.693-9.572 29.023-22.489h171.862c4.131 0 7.479-3.348 7.479-7.479s-3.348-7.479-7.479-7.479h-171.862c-3.331-12.917-15.08-22.489-29.023-22.489zm0 44.978c-8.277 0-15.011-6.734-15.011-15.011s6.734-15.011 15.011-15.011 15.011 6.734 15.011 15.011-6.734 15.011-15.011 15.011z"/></g></g></svg>