<?xml version="1.0" encoding="iso-8859-1"?> 
<svg version="1.1" id="Capa_1" xmlns="http://www.w3.org/2000/svg" xmlns:xlink="http://www.w3.org/1999/xlink" x="0px" y="0px"
	 viewBox="0 0 512 512" style="enable-background:new 0 0 512 512;" xml:space="preserve">

	<path  fill-opacity="0.5" fill="#FFFFFF"  d="M176 32H48A48 48 0 0 0 0 80v128a48 48 0 0 0 48 48h80v64a64.06 64.06 0 0 1-64 64h-8a23.94 23.94 0 0 0-24 23.88V456a23.94 23.94 0 0 0 23.88 24H64a160 160 0 0 0 160-160V80a48 48 0 0 0-48-48z" />
	<path  fill="#FFFFFF"  d="M464 32H336a48 48 0 0 0-48 48v128a48 48 0 0 0 48 48h80v64a64.06 64.06 0 0 1-64 64h-8a23.94 23.94 0 0 0-24 23.88V456a23.94 23.94 0 0 0 23.88 24H352a160 160 0 0 0 160-160V80a48 48 0 0 0-48-48z" />
</svg>