<?xml version="1.0" encoding="iso-8859-1"?> 
<svg version="1.1" id="Capa_1" xmlns="http://www.w3.org/2000/svg" xmlns:xlink="http://www.w3.org/1999/xlink" x="0px" y="0px"
	 viewBox="0 0 512 512" style="enable-background:new 0 0 512 512;" xml:space="preserve">

	<path fill-opacity="0.5" fill="#FFFFFF" d="M464 256h-80v-64a64.06 64.06 0 0 1 64-64h8a23.94 23.94 0 0 0 24-23.88V56a23.94 23.94 0 0 0-23.88-24H448a160 160 0 0 0-160 160v240a48 48 0 0 0 48 48h128a48 48 0 0 0 48-48V304a48 48 0 0 0-48-48z" />
	<path fill="#FFFFFF" d="M176 256H96v-64a64.06 64.06 0 0 1 64-64h8a23.94 23.94 0 0 0 24-23.88V56a23.94 23.94 0 0 0-23.88-24H160A160 160 0 0 0 0 192v240a48 48 0 0 0 48 48h128a48 48 0 0 0 48-48V304a48 48 0 0 0-48-48z" />
</svg>