<svg id="Capa_1" enable-background="new 0 0 511.899 511.899" height="512" viewBox="0 0 511.899 511.899" width="512" xmlns="http://www.w3.org/2000/svg"><g><g><path d="m275.853 265.011h-1.332v-42.438h-202.325v42.438h-1.332c-12.41 0-22.469 10.06-22.469 22.469 0 12.41 10.06 22.469 22.469 22.469h1.332v.72c0 40.331 32.695 73.027 73.027 73.027h56.272c40.331 0 73.027-32.695 73.027-73.027v-.72h1.332c12.41 0 22.469-10.06 22.469-22.469-.001-12.409-10.061-22.469-22.47-22.469z" fill="#fed2a4"/></g><g><path d="m298.322 287.481c0 12.412-10.058 22.47-22.47 22.47h-1.329v.721c0 40.328-32.696 73.024-73.024 73.024h-17.822c40.336 0 73.024-32.696 73.024-73.024v-88.099h17.822v42.438h1.329c6.206 0 11.82 2.514 15.888 6.582 4.068 4.069 6.582 9.682 6.582 15.888z" fill="#ffbd86"/></g><g><path d="m233.588 504.4v-55.465c0-12.652-6.208-24.759-16.468-32.16-5.185-3.739-11.257-6.189-17.588-7.08-8.209-1.156-8.319-.906-8.319-9.503 0-.023 0-16.495 0-16.495h-35.71v16.495c0 8.596-.11 8.347-8.319 9.503-6.331.891-12.403 3.341-17.588 7.08-10.26 7.4-16.468 19.508-16.468 32.16v55.465z" fill="#fed2a4"/></g><g><path d="m233.584 448.932v55.468h-120.454v-55.468c0-12.645 6.203-24.762 16.468-32.16 5.187-3.734 11.261-6.183 17.583-7.079 4.699-.657 6.751-.866 7.627-2.529 2.011 2.31 4.65 4.391 8.105 5.954 6.601 2.997 14.288 2.997 20.889 0 3.455-1.563 6.094-3.644 8.105-5.954.876 1.663 2.927 1.872 7.627 2.529 6.332.896 12.406 3.345 17.583 7.079 10.264 7.398 16.467 19.515 16.467 32.16z" fill="#f4d902"/></g><g><path d="m233.584 448.933v55.468h-19.913v-55.468c0-12.645-6.203-24.762-16.468-32.16-3.156-2.27-6.641-4.072-10.315-5.327 2.001-1.255 3.654-2.718 5.018-4.281.876 1.663 2.927 1.872 7.627 2.529 6.332.896 12.406 3.345 17.583 7.079 10.265 7.398 16.468 19.515 16.468 32.16z" fill="#e3ca00"/></g><g><path d="m274.249 202.967c-.525-46.16-38.053-83.418-84.277-83.418h-33.487c-46.223 0-83.749 37.256-84.277 83.413-.202 17.649-.012 107.707-.012 107.707s20.454-29.435 24.252-66.628c.399-3.911 4.258-6.492 8.046-5.438 32.005 8.904 84.637 16.981 143.359 16.551 2.604-.019 4.873 1.746 5.498 4.274 7.109 28.748 20.912 51.242 20.912 51.242s-.001-107.703-.014-107.703z" fill="#3e5959"/></g><g><g><path d="m351.313 7.5c-61.688.044-112.03 50.426-112.028 112.114.001 24.849 8.089 47.806 21.772 66.391 1.517 2.061 1.962 4.721 1.138 7.144l-9.921 29.169c-2.081 6.118 3.719 11.985 9.861 9.974l35.591-11.654c1.91-.625 3.983-.487 5.799.372 14.268 6.748 30.188 10.577 46.989 10.706 62.043.478 112.971-50.023 112.991-112.068.02-61.962-50.225-112.193-112.192-112.148z" fill="#97d729"/></g><g><path d="m463.501 119.646c-.019 62.046-50.944 112.55-112.99 112.071-11.787-.094-23.142-2.007-33.794-5.467 4.641.619 9.367.956 14.168.994 62.046.478 112.972-50.025 112.99-112.071.019-49.819-32.453-92.052-77.396-106.661 54.798 7.361 97.05 54.31 97.022 111.134z" fill="#8bc727"/></g><g><path d="m385.973 69.391-52.663 52.663c-.457.457-1.197.457-1.653 0l-14.112-14.112c-7.919-7.919-20.759-7.919-28.679 0-7.919 7.919-7.919 20.759 0 28.679l35.778 35.778c4.329 4.329 11.348 4.329 15.677 0l74.332-74.329c7.919-7.919 7.919-20.759 0-28.679-7.921-7.919-20.761-7.919-28.68 0z" fill="#e2e2e2"/></g><g><path d="m414.648 98.07-74.33 74.33c-4.332 4.332-11.346 4.332-15.678 0l-11.243-11.252c4.21 2.325 9.602 1.697 13.174-1.875l74.33-74.33c5.607-5.607 7.239-13.681 4.904-20.732 3.244.91 6.292 2.635 8.842 5.185 7.924 7.914 7.924 20.751.001 28.674z" fill="#cecece"/></g><g><g><path d="m189.747 332.313c-3.815-1.613-8.216.17-9.829 3.985-1.117 2.641-3.692 4.348-6.56 4.348s-5.442-1.707-6.56-4.348c-1.613-3.815-6.015-5.601-9.829-3.985-3.815 1.613-5.599 6.015-3.985 9.829 3.47 8.203 11.467 13.504 20.374 13.504s16.904-5.301 20.374-13.504c1.614-3.814-.17-8.215-3.985-9.829z"/><path d="m153.173 297.412c0-4.143-3.358-7.5-7.5-7.5s-7.5 3.357-7.5 7.5v11.922c0 4.143 3.358 7.5 7.5 7.5s7.5-3.357 7.5-7.5z"/><path d="m201.044 289.912c-4.142 0-7.5 3.357-7.5 7.5v11.922c0 4.143 3.358 7.5 7.5 7.5s7.5-3.357 7.5-7.5v-11.922c0-4.142-3.358-7.5-7.5-7.5z"/><path d="m435.955 35.016c-22.592-22.583-52.618-35.016-84.558-35.016-.029 0-.061 0-.09 0-9.746.007-19.447 1.201-28.833 3.55-4.019 1.005-6.461 5.077-5.455 9.096 1.005 4.019 5.076 6.468 9.096 5.455 8.2-2.051 16.68-3.095 25.204-3.101h.078c27.933 0 54.196 10.875 73.953 30.624 19.777 19.77 30.664 46.058 30.654 74.021-.009 27.989-11.022 54.322-31.01 74.15-19.799 19.64-45.905 30.424-73.601 30.424-.273 0-.55-.001-.823-.003-15.329-.117-30.079-3.478-43.842-9.987-3.569-1.687-7.599-1.941-11.338-.719l-35.59 11.654c-.118.041-.198.065-.346-.083-.147-.149-.121-.229-.08-.349l9.921-29.168c1.605-4.722.783-9.957-2.198-14.006-13.288-18.048-20.312-39.468-20.313-61.944-.001-36.752 19.773-71.283 51.606-90.117 3.564-2.109 4.745-6.709 2.636-10.274-2.109-3.564-6.711-4.743-10.274-2.636-36.374 21.521-58.969 61-58.968 103.027 0 .852.032 1.698.05 2.547-12.803-6.594-27.065-10.113-41.862-10.113h-33.487c-24.333 0-47.258 9.436-64.553 26.569-17.277 17.117-26.945 39.938-27.224 64.258-.094 8.179-.103 32.071-.086 55.291-13.539 2.88-23.728 14.929-23.728 29.314 0 14.495 10.343 26.619 24.036 29.38 3.17 41.523 37.97 74.336 80.292 74.336h2.781s0 10.182-.007 10.81c-8.256 1.203-15.957 3.76-22.786 8.686-12.261 8.844-19.581 23.14-19.581 38.243v55.465c0 4.143 3.358 7.5 7.5 7.5h120.458c4.142 0 7.5-3.357 7.5-7.5v-17.587c0-4.143-3.358-7.5-7.5-7.5s-7.5 3.357-7.5 7.5v10.087h-21.591v-15.954l3.925-3.174c3.222-2.604 3.722-7.326 1.118-10.547-2.604-3.224-7.327-3.723-10.547-1.117l-6.71 5.425c-1.762 1.424-2.785 3.567-2.785 5.832v19.535h-32.273v-19.535c0-2.265-1.023-4.408-2.785-5.832l-6.71-5.425c-3.22-2.606-7.943-2.104-10.547 1.117s-2.104 7.943 1.118 10.547l3.925 3.174v15.954h-21.595v-47.965c0-10.297 4.993-20.046 13.355-26.077 3.013-2.173 6.407-3.814 9.98-4.832 3.179-.906 6.432-1.049 9.627-1.789 1.893 1.445 3.968 2.691 6.22 3.71 4.306 1.955 8.926 2.932 13.547 2.932 4.618 0 9.236-.977 13.534-2.928 2.258-1.022 4.335-2.269 6.229-3.715 1.431.331 2.98.551 4.655.785 5.4.759 10.512 2.631 14.955 5.836 8.362 6.031 13.355 15.78 13.355 26.077v3.472c0 4.143 3.358 7.5 7.5 7.5s7.5-3.357 7.5-7.5v-3.472c0-15.104-7.32-29.399-19.581-38.243-7.071-5.101-14.53-6.909-22.808-8.717.042-.998 0-10.778.014-10.778h2.781c42.321 0 77.121-32.813 80.291-74.336 13.693-2.761 24.036-14.885 24.036-29.38 0-14.411-10.226-26.479-23.801-29.332v-7.665c-.088-.001-.174-.004-.262-.005l-.003-16.72 18.301-5.993c.082-.027.175-.018.261.024 15.745 7.447 32.613 11.291 50.138 11.426 32.044.216 62.25-12.103 85.103-34.771 22.848-22.664 35.436-52.778 35.446-84.794.012-31.973-12.435-62.031-35.048-84.634zm-380.06 252.464c0-6.031 3.592-11.227 8.743-13.596.013 10.77.028 20.472.04 27.211-5.172-2.36-8.783-7.568-8.783-13.615zm234.927 0c0 6.156-3.737 11.452-9.06 13.749l-.001-27.499c5.323 2.298 9.061 7.594 9.061 13.75zm-211.114-84.432c.233-20.353 8.323-39.45 22.782-53.773 14.467-14.332 33.643-22.226 53.996-22.226h33.487c15.828 0 30.936 4.789 43.679 13.654 3.177 17.925 10.393 34.844 21.367 49.75.072.098.102.208.076.282l-9.921 29.168c-1.884 5.539-.499 11.564 3.614 15.724 2.94 2.975 6.85 4.565 10.872 4.565 1.604 0 3.225-.253 4.81-.771l2.291-.75c.001 11.921.002 25.503.002 38.566-2.249-5.993-4.402-12.619-6.131-19.608-1.455-5.885-6.684-9.974-12.737-9.974h-.096c-50.536.354-103.333-5.715-141.294-16.276-3.957-1.103-8.171-.404-11.563 1.91-3.37 2.3-5.54 5.941-5.954 9.992-1.393 13.648-5.21 26.278-9.341 36.599-.008-4.429-.023-69.466.061-76.832zm100.993 203.241c-4.598 2.089-10.088 2.088-14.696-.004-1.13-.511-2.151-1.103-3.076-1.781.074-1.325.075-2.753.075-4.312v-8.995h20.71v8.995c0 1.559.001 2.985.075 4.31-.928.68-1.952 1.273-3.088 1.787zm20.794-30.093h-56.272c-35.406 0-64.324-28.232-65.472-63.364 4.792-7.5 20.314-33.911 24.01-66.652 38.754 10.595 91.812 16.723 142.67 16.481 6.387 24.923 17.305 44.832 20.53 50.395-1.263 35.028-30.135 63.14-65.466 63.14z"/></g><path d="m332.483 112.274-9.636-9.636c-10.83-10.83-28.453-10.83-39.285 0-5.246 5.247-8.137 12.224-8.137 19.644s2.891 14.396 8.137 19.644l35.777 35.777c3.624 3.623 8.382 5.435 13.143 5.435 4.758-.001 9.519-1.813 13.141-5.435l74.333-74.329c10.831-10.831 10.831-28.455 0-39.286-5.247-5.247-12.224-8.137-19.644-8.137s-14.396 2.891-19.643 8.138v-.001zm58.794-37.579c2.413-2.414 5.622-3.744 9.035-3.744s6.623 1.33 9.036 3.744c4.982 4.982 4.982 13.089.001 18.071l-74.333 74.329c-.913.914-1.98 1.051-2.535 1.051-.554 0-1.621-.137-2.534-1.051l-35.777-35.777c-2.414-2.413-3.744-5.623-3.744-9.036s1.33-6.623 3.744-9.036c2.49-2.491 5.763-3.737 9.035-3.737s6.545 1.246 9.036 3.736l14.117 14.118c3.381 3.374 8.878 3.371 12.255-.005z"/></g></g></g></svg>