<svg height="512pt" viewBox="0 0 512.00044 512" width="512pt" xmlns="http://www.w3.org/2000/svg"><path d="m188.078125 145.066406c9.214844 15.105469 17.921875 29.371094 17.921875 43.382813v24.734375c0 18.464844 12.894531 33.945312 30.101562 37.851562 1.023438 10.085938 9.542969 17.960938 19.898438 17.960938 10.371094 0 18.894531-7.894532 19.898438-18.003906 17.21875-3.972657 30.101562-19.410157 30.101562-37.808594v-24.734375c0-13.25 7.503906-25.835938 16.195312-40.40625 11.023438-18.488281 23.503907-39.414063 23.796876-67.246094.003906-.15625.007812-.3125.007812-.464844v-.535156c0-.15625-.003906-.3125-.007812-.464844-.5-47.496093-36.585938-79.332031-90.109376-79.332031-24.785156 0-46.582031 6.769531-63.035156 19.578125-18.34375 14.28125-28.558594 35.457031-28.839844 59.722656-.003906.164063-.007812.328125-.007812.496094v.535156c0 .1875.003906.375.007812.5625.355469 25.3125 12.945313 45.941407 24.070313 64.171875zm77.921875 46.929688v20h-20v-20zm-10.117188-151.996094c15.03125 0 49.941407 3.910156 50.113282 40.058594-.082032 17.191406-8.460938 31.242187-18.152344 47.496094-4.546875 7.621093-9.359375 15.699218-13.308594 24.445312h-37c-4.441406-9.949219-10.042968-19.132812-15.3125-27.769531-9.320312-15.269531-18.121094-29.695313-18.222656-44.1875.175781-29.519531 26.882812-40.042969 51.882812-40.042969zm255.257813 422.992188c-2.246094-10.816407-12.832031-17.761719-23.648437-15.519532-10.8125 2.246094-17.761719 12.832032-15.515626 23.648438.109376.539062-.3125.859375-.328124.871094h-195.78125c.046874-.203126.109374-.398438.152343-.605469 9.601563-46.253907 50.808594-79.824219 97.976563-79.824219 21.125 0 41.289062 6.457031 58.308594 18.675781 8.976562 6.441407 21.46875 4.390625 27.910156-4.582031s4.390625-21.46875-4.582032-27.910156c-7.472656-5.363282-15.375-9.9375-23.613281-13.6875 12.410157-13.820313 19.976563-32.070313 19.976563-52.0625 0-43.007813-34.988282-78-78-78-43.007813 0-77.996094 34.992187-77.996094 78 0 20.035156 7.597656 38.328125 20.058594 52.15625-11.082032 5.039062-21.527344 11.527344-31.019532 19.359375-11.390624 9.394531-21.171874 20.515625-29.039062 32.832031-7.867188-12.316406-17.648438-23.4375-29.042969-32.832031-9.3125-7.683594-19.542969-14.078125-30.394531-19.078125 12.085938-13.742188 19.4375-31.742188 19.4375-51.4375 0-43.007813-34.988281-78-78-78-43.007812 0-77.996094 34.992187-77.996094 78 0 19.695312 7.351563 37.695312 19.4375 51.4375-10.851562 5-21.085937 11.394531-30.398437 19.078125-24.609375 20.300781-41.722657 48.621093-48.183594 79.746093-2.496094 12.023438.507813 24.367188 8.242187 33.871094 7.6875 9.445313 19.074219 14.863282 31.246094 14.863282h431.300782c12.105468 0 23.460937-5.421876 31.15625-14.878907 7.804687-9.59375 10.84375-22.03125 8.335937-34.121093zm-137.144531-188.996094c20.953125 0 38 17.046875 38 38s-17.046875 38-38 38c-20.949219 0-37.996094-17.046875-37.996094-38s17.046875-38 37.996094-38zm-235.996094 1c20.953125 0 38 17.046875 38 38s-17.046875 38-38 38-38-17.046875-38-38 17.046875-38 38-38zm-97.757812 196.988281c-.003907 0-.3125-.148437-.21875-.597656 9.601562-46.253907 50.808593-79.824219 97.976562-79.824219s88.375 33.570312 97.976562 79.824219c.042969.203125.105469.402343.15625.605469h-195.785156c-.0625 0-.097656-.003907-.105468-.007813zm361.753906-405.984375c11.046875 0 20 8.953125 20 20 0 11.042969-8.953125 20-20 20-11.042969 0-20-8.957031-20-20 0-11.046875 8.957031-20 20-20zm-33.996094-46c0-11.046875 8.953125-20 19.996094-20 11.046875 0 20 8.953125 20 20s-8.953125 20-20 20c-11.042969 0-19.996094-8.957031-19.996094-20zm-8 129c0-11.046875 8.953125-20 19.996094-20 11.046875 0 20 8.953125 20 20 0 11.042969-8.953125 19.996094-20 19.996094-11.042969 0-19.996094-8.953125-19.996094-19.996094zm-272-64c0-11.046875 8.957031-20 20-20 11.046875 0 20 8.953125 20 20 0 11.042969-8.953125 20-20 20-11.042969 0-20-8.957031-20-20zm13-65c0-11.046875 8.957031-20 20-20 11.046875 0 20 8.953125 20 20s-8.953125 20-20 20c-11.042969 0-20-8.957031-20-20zm28 109c11.046875 0 20 8.953125 20 20 0 11.042969-8.953125 19.996094-20 19.996094-11.042969 0-20-8.953125-20-19.996094 0-11.046875 8.957031-20 20-20zm0 0"/></svg>