<svg height="512pt" viewBox="0 0 512.00067 512" width="512pt" xmlns="http://www.w3.org/2000/svg"><path d="m388.175781 415.941406c5 9.851563 1.070313 21.886719-8.777343 26.890625-37.574219 19.082031-80.242188 29.167969-123.398438 29.167969-34.480469 0-67.835938-6.191406-99.277344-18.414062l-128.65625 56.714843c-2.59375 1.144531-5.339844 1.699219-8.0625 1.699219-5.097656 0-10.117187-1.949219-13.925781-5.640625-5.84375-5.667969-7.671875-14.308594-4.621094-21.855469l45.414063-112.332031c-30.710938-39.917969-46.871094-86.746094-46.871094-136.171875 0-63.375 26.855469-122.855469 75.621094-167.488281 48.269531-44.179688 112.328125-68.511719 180.378906-68.511719 2.496094 0 5.027344.0351562 7.527344.101562 11.042968.289063 19.757812 9.480469 19.464844 20.519532-.292969 11.042968-9.445313 19.785156-20.519532 19.464844-2.152344-.058594-4.332031-.085938-6.472656-.085938-119.101562 0-216 87.925781-216 196 0 43.78125 15.578125 85.199219 45.046875 119.773438 4.832031 5.671874 6.113281 13.558593 3.320313 20.46875l-31.367188 77.589843 91.347656-40.265625c5.0625-2.234375 10.824219-2.269531 15.914063-.097656 28.820312 12.296875 59.683593 18.53125 91.738281 18.53125 36.890625 0 73.296875-8.585938 105.285156-24.832031 9.847656-5.003907 21.886719-1.074219 26.890625 8.773437zm103.824219-199.941406c-11.046875 0-20 8.953125-20 20 0 37.214844-11.550781 73.425781-33.398438 104.714844-6.324218 9.054687-4.109374 21.523437 4.949219 27.847656 3.484375 2.4375 7.476563 3.605469 11.433594 3.605469 6.3125 0 12.523437-2.984375 16.414063-8.554688 26.5625-38.039062 40.601562-82.167969 40.601562-127.613281 0-11.046875-8.953125-20-20-20zm-55.570312-29.847656-3.679688 23.007812c-1.554688 9.703125-9.925781 16.839844-19.75 16.839844h-18c-9.679688 0-17.96875-6.929688-19.683594-16.457031l-4.253906-23.628907c-5.476562-2.476562-10.660156-5.5625-15.453125-9.210937l-21.96875 7.898437c-8.851563 3.183594-18.726563-.230468-23.71875-8.203124l-9.871094-15.761719c-5.445312-8.691407-3.433593-20.09375 4.660157-26.398438l19.515624-15.195312c-.027343-.394531-.042968-.792969-.066406-1.191407-.023437-.398437-.050781-.800781-.066406-1.203124-.058594-1.214844-.09375-2.429688-.09375-3.648438 0-1.226562.027344-2.453125.085938-3.683594l-20-13.019531c-9.050782-5.894531-11.789063-17.910156-6.179688-27.144531l10.3125-16.976563c4.710938-7.757812 14.0625-11.375 22.765625-8.792969l23.332031 6.902344c5.128906-4.070312 10.722656-7.484375 16.671875-10.179687l3.203125-22.882813c1.382813-9.875 9.835938-17.222656 19.808594-17.222656h19c9.679688 0 17.96875 6.929688 19.683594 16.457031l4.253906 23.628907c.394531.179687.773438.382812 1.164062.566406.40625.191406.808594.386718 1.210938.585937.847656.417969 1.691406.847657 2.523438 1.296875.265624.144532.527343.292969.792968.4375.941406.523438 1.878906 1.054688 2.800782 1.613282.035156.023437.070312.046874.109374.070312 2.164063 1.316406 4.28125 2.722656 6.316407 4.242188l21.589843-8.242188c8.925782-3.414062 19.015626-.027344 24.085938 8.070312l10.417969 16.636719c5.449219 8.699219 3.425781 20.109375-4.679688 26.40625l-19.5 15.152344c.03125.402344.042969.8125.070313 1.21875.023437.402344.050781.800781.066406 1.203125.058594 1.21875.09375 2.433594.09375 3.65625 0 1.039062-.019531 2.082031-.058594 3.121094l18.886719 13.847656c7.722656 5.664062 10.347656 16.003906 6.261719 24.664062l-7.589844 16.082032c-4.210938 8.925781-14.300781 13.445312-23.761719 10.644531l-22.734375-6.726563c-5.644531 4.6875-11.882812 8.554688-18.574218 11.519532zm-72.429688-73.152344c0 .765625.027344 1.53125.070312 2.296875.011719.210937.035157.421875.046876.628906.042968.5625.089843 1.121094.15625 1.679688.027343.234375.058593.46875.089843.703125.074219.539062.15625 1.078125.25 1.617187.039063.226563.078125.457031.121094.683594.109375.5625.234375 1.121094.367187 1.679687 1.675782 7.027344 5.214844 13.339844 10.0625 18.386719.359376.378907.730469.746094 1.101563 1.109375.242187.230469.480469.464844.726563.691406.53125.488282 1.074218.960938 1.625 1.414063.285156.238281.582031.460937.871093.6875.34375.265625.6875.523437 1.035157.777344.324218.238281.652343.476562.984374.703125.417969.285156.84375.554687 1.269532.824218.488281.308594.984375.601563 1.488281.890626.347656.199218.699219.394531 1.054687.582031.363282.195312.730469.382812 1.097657.5625.433593.210937.867187.410156 1.304687.605469.46875.210937.945313.414062 1.425782.605468.492187.195313.988281.390625 1.488281.566406.316406.113282.636719.21875.957031.324219.5625.183594 1.132812.355469 1.707031.515625 3.40625.949219 6.992188 1.464844 10.699219 1.464844 3.394531 0 6.6875-.429688 9.832031-1.226562.839844-.210938 1.664063-.457032 2.480469-.71875.289062-.09375.574219-.195313.859375-.292969.585937-.203125 1.164063-.425781 1.742187-.65625.480469-.195313.953126-.394531 1.421876-.609375.449218-.199219.890624-.402344 1.328124-.617188.410157-.203125.816407-.410156 1.21875-.625.371094-.203125.738282-.414062 1.105469-.628906.621094-.359375 1.234375-.734375 1.832031-1.125.320313-.210938.640626-.425781.957032-.644531.367187-.253907.738281-.511719 1.097656-.78125.578125-.429688 1.144531-.878907 1.695312-1.339844.277344-.230469.542969-.46875.8125-.703125.496094-.4375.988282-.890625 1.464844-1.355469.140625-.132812.285156-.265625.425782-.402343.613281-.617188 1.203124-1.257813 1.78125-1.917969 4.476562-5.097657 7.6875-11.335938 9.113281-18.21875.085937-.410157.15625-.824219.226562-1.234375.042969-.246094.09375-.488282.132813-.734375.09375-.609375.171875-1.222657.238281-1.835938.007813-.0625.015625-.125.023437-.1875.140626-1.375.214844-2.761719.214844-4.140625 0-.769531-.027344-1.535156-.070312-2.300781-.015625-.21875-.035156-.433594-.050782-.652344-.042968-.550781-.089843-1.101562-.152343-1.652343-.03125-.25-.0625-.496094-.09375-.742188-.070313-.523438-.152344-1.042969-.242188-1.5625-.042969-.246094-.085937-.496094-.132812-.742188-.105469-.539062-.226563-1.074218-.351563-1.609374-1.683594-7.0625-5.238281-13.402344-10.121094-18.46875-.421874-.4375-.851562-.867188-1.292968-1.285157-.175782-.164062-.34375-.335937-.523438-.496093-.558594-.511719-1.132812-1.007813-1.71875-1.484376-.246094-.199218-.5-.394531-.75-.589843-.390625-.304688-.785156-.597657-1.1875-.886719-.28125-.203125-.558594-.40625-.84375-.601562-.585937-.398438-1.179687-.785157-1.78125-1.148438-.316406-.191406-.636718-.367188-.957031-.550781-.378906-.214844-.757813-.425781-1.140625-.628907-.34375-.179687-.683594-.359374-1.035156-.53125-.472656-.230468-.949219-.449218-1.433594-.660156-.441406-.195312-.886719-.382812-1.339844-.5625-.472656-.191406-.953125-.375-1.433594-.546875-.320312-.113281-.644531-.222656-.96875-.328125-.546874-.175781-1.097656-.34375-1.652343-.496094-3.417969-.957031-7.015625-1.476562-10.730469-1.476562-3.640625 0-7.164062.5-10.519531 1.414062-.5625.152344-1.117188.316407-1.671875.492188-.402344.128906-.804688.265625-1.207032.410156-.34375.121094-.6875.253906-1.027343.386719-.84375.324219-1.671875.679687-2.484375 1.058594-.167969.078125-.335938.152343-.5.230469-.515625.25-1.023438.511718-1.523438.78125-.121094.066406-.238281.132812-.355468.199218-1.59375.878906-3.121094 1.863282-4.574219 2.945313-.0625.046875-.125.097656-.191407.144531-.910156.6875-1.785156 1.414062-2.632812 2.171875-.082031.074219-.167969.148437-.253906.222656-.417969.386719-.832032.777344-1.234375 1.179688-.132813.128906-.257813.265625-.386719.394531-5.066406 5.175781-8.738281 11.714844-10.414062 19.007812-.160157.691407-.300782 1.390626-.421876 2.089844-.007812.035156-.015624.074219-.019531.109375-.121093.699219-.222656 1.402344-.304687 2.101563-.007813.058594-.015625.117187-.019532.171875-.078124.664062-.132812 1.332031-.175781 1.996093-.003906.089844-.015625.183594-.019531.273438-.039062.742188-.0625 1.480469-.0625 2.21875zm0 0"/></svg>