<svg height="512pt" viewBox="0 -6 512 511" width="512pt" xmlns="http://www.w3.org/2000/svg"><path d="m512 239.5c0 11.046875-8.953125 20-20 20h-175c-11.046875 0-20-8.953125-20-20s8.953125-20 20-20h175c11.046875 0 20 8.953125 20 20zm-195-60h175c11.046875 0 20-8.953125 20-20s-8.953125-20-20-20h-175c-11.046875 0-20 8.953125-20 20s8.953125 20 20 20zm175 120h-175c-11.046875 0-20 8.953125-20 20s8.953125 20 20 20h175c11.046875 0 20-8.953125 20-20s-8.953125-20-20-20zm0 80h-175c-11.046875 0-20 8.953125-20 20s8.953125 20 20 20h175c11.046875 0 20-8.953125 20-20s-8.953125-20-20-20zm0 80h-175c-11.046875 0-20 8.953125-20 20s8.953125 20 20 20h175c11.046875 0 20-8.953125 20-20s-8.953125-20-20-20zm-432-144c-11.027344 0-20-8.972656-20-20v-96c0-11.027344 8.972656-20 20-20h177c11.046875 0 20-8.953125 20-20s-8.953125-20-20-20h-177c-33.085938 0-60 26.914062-60 60v96c0 26.074219 16.71875 48.316406 40 56.574219v127.425781c0 11.046875 8.953125 20 20 20s20-8.953125 20-20v-144c0-11.046875-8.953125-20-20-20zm80 0c-11.046875 0-20 8.953125-20 20v144c0 11.046875 8.953125 20 20 20s20-8.953125 20-20v-144c0-11.046875-8.953125-20-20-20zm-100-255c0-33.085938 26.914062-60 60-60s60 26.914062 60 60-26.914062 60-60 60-60-26.914062-60-60zm40 0c0 11.027344 8.972656 20 20 20s20-8.972656 20-20-8.972656-20-20-20-20 8.972656-20 20zm158 159c-11.046875 0-20 8.953125-20 20s8.953125 20 20 20 20-8.953125 20-20-8.953125-20-20-20zm0 80c-11.046875 0-20 8.953125-20 20s8.953125 20 20 20 20-8.953125 20-20-8.953125-20-20-20zm0 80c-11.046875 0-20 8.953125-20 20s8.953125 20 20 20 20-8.953125 20-20-8.953125-20-20-20zm0 80c-11.046875 0-20 8.953125-20 20s8.953125 20 20 20 20-8.953125 20-20-8.953125-20-20-20zm0 0"/></svg>