<?xml version="1.0" encoding="iso-8859-1"?>
<!-- Generator: Adobe Illustrator 19.0.0, SVG Export Plug-In . SVG Version: 6.00 Build 0)  -->
<svg version="1.1" id="Capa_1" xmlns="http://www.w3.org/2000/svg" xmlns:xlink="http://www.w3.org/1999/xlink" x="0px" y="0px"
	 viewBox="0 0 512 512" style="enable-background:new 0 0 512 512;" xml:space="preserve">
<g>
	<g>
		<path d="M54.517,71.37c-5.522,0-9.998,4.476-9.998,9.998c0,5.522,4.475,9.998,9.997,9.998h0.099c5.522,0,9.949-4.476,9.949-9.998
			C64.564,75.846,60.039,71.37,54.517,71.37z"/>
	</g>
</g>
<g>
	<g>
		<path d="M102.457,71.37c-5.522,0-9.998,4.476-9.998,9.998c0,5.522,4.475,9.998,9.997,9.998h0.099c5.522,0,9.949-4.476,9.949-9.998
			C112.504,75.846,107.979,71.37,102.457,71.37z"/>
	</g>
</g>
<g>
	<g>
		<path d="M150.397,71.37c-5.522,0-9.998,4.476-9.998,9.998c0,5.522,4.475,9.998,9.997,9.998h0.099c5.522,0,9.949-4.476,9.949-9.998
			C160.443,75.846,155.918,71.37,150.397,71.37z"/>
	</g>
</g>
<g>
	<g>
		<path d="M449.665,71.37H274.29c-5.522,0-9.998,4.476-9.998,9.998c0,5.522,4.476,9.998,9.998,9.998h175.375
			c5.522,0,9.998-4.476,9.998-9.998C459.662,75.846,455.186,71.37,449.665,71.37z"/>
	</g>
</g>
<g>
	<g>
		<path d="M462.012,26.054H49.988C22.425,26.054,0,48.479,0,76.042v359.916c0,27.564,22.425,49.988,49.988,49.988h412.023
			c27.564,0,49.988-22.425,49.988-49.988V76.042C512,48.479,489.575,26.054,462.012,26.054z M492.005,435.958
			c0,16.538-13.455,29.993-29.993,29.993H49.988c-16.538,0-29.993-13.455-29.993-29.993V134.099h472.009V435.958z M492.005,114.103
			H19.995V76.042c0-16.538,13.455-29.993,29.993-29.993h412.023c16.538,0,29.993,13.455,29.993,29.993V114.103z"/>
	</g>
</g>
<g>
	<g>
		<path d="M286.143,196.247c-1.86-1.86-4.439-2.929-7.068-2.929c-2.639,0-5.209,1.07-7.068,2.929
			c-1.86,1.86-2.929,4.439-2.929,7.068c0,2.639,1.07,5.209,2.929,7.068c1.859,1.86,4.429,2.929,7.068,2.929
			c2.629,0,5.209-1.07,7.068-2.929s2.929-4.439,2.929-7.068S288.003,198.107,286.143,196.247z"/>
	</g>
</g>
<g>
	<g>
		<path d="M324.485,426.03H273.62l50.948-85.27c0.926-1.55,1.416-3.322,1.416-5.128v-171.54c0-5.522-4.476-9.998-9.998-9.998
			h-83.048c-0.003,0-0.007,0-0.01,0s-0.006,0-0.01,0h-36.904c-5.522,0-9.998,4.476-9.998,9.998v171.541
			c0,1.806,0.489,3.578,1.416,5.128l50.948,85.27h-91.356c-5.522,0-9.998,4.476-9.998,9.998s4.476,9.998,9.998,9.998h177.46
			c5.522,0,9.998-4.476,9.998-9.998S330.007,426.03,324.485,426.03z M242.926,174.09h63.062v151.544h-16.919v-84.82
			c0-5.522-4.476-9.998-9.998-9.998s-9.998,4.476-9.998,9.998v84.82h-26.148V174.09z M206.012,174.09h16.919v151.545h-16.919V174.09
			z M229.154,371.606l-15.52-25.976h84.732l-15.52,25.976H229.154z M256,416.536l-14.898-24.935h29.797L256,416.536z"/>
	</g>
</g>
<g>
	<g>
		<path d="M372.043,428.962c-1.86-1.87-4.439-2.929-7.068-2.929c-2.629,0-5.209,1.06-7.068,2.929
			c-1.86,1.86-2.929,4.429-2.929,7.068c0,2.629,1.07,5.209,2.929,7.068c1.86,1.859,4.439,2.929,7.068,2.929
			c2.629,0,5.209-1.07,7.068-2.929c1.86-1.86,2.929-4.439,2.929-7.068C374.972,433.391,373.902,430.812,372.043,428.962z"/>
	</g>
</g>
<g>
</g>
<g>
</g>
<g>
</g>
<g>
</g>
<g>
</g>
<g>
</g>
<g>
</g>
<g>
</g>
<g>
</g>
<g>
</g>
<g>
</g>
<g>
</g>
<g>
</g>
<g>
</g>
<g>
</g>
</svg>
