<svg height="512pt" viewBox="0 0 512 512" width="512pt" xmlns="http://www.w3.org/2000/svg"><path d="m512 61v211c0 11.046875-8.953125 20-20 20s-20-8.953125-20-20v-191h-191v200c0 11.046875-8.953125 20-20 20-.179688 0-.355469-.023438-.53125-.027344-6.007812.136719-12.007812-2.402344-16.0625-7.449218l-80.222656-99.867188c-7.480469-9.3125-18.625-14.65625-30.570313-14.65625h-73.613281c-11.027344 0-20 8.972656-20 20v109c0 11.027344 8.972656 20 20 20 11.046875 0 20 8.953125 20 20v144c0 11.046875-8.953125 20-20 20s-20-8.953125-20-20v-127.425781c-23.28125-8.257813-40-30.5-40-56.574219v-109c0-33.085938 26.914062-60 60-60h73.613281c24.132813 0 46.644531 10.789062 61.753907 29.605469l45.632812 56.804687v-164.410156c0-11.046875 8.953125-20 20-20h97v-21c0-11.046875 8.953125-20 20-20s20 8.953125 20 20v21h94c11.046875 0 20 8.953125 20 20zm-181 100h91c11.046875 0 20-8.953125 20-20s-8.953125-20-20-20h-91c-11.046875 0-20 8.953125-20 20s8.953125 20 20 20zm0 70h91c11.046875 0 20-8.953125 20-20s-8.953125-20-20-20h-91c-11.046875 0-20 8.953125-20 20s8.953125 20 20 20zm0 71h41c11.046875 0 20-8.953125 20-20s-8.953125-20-20-20h-41c-11.046875 0-20 8.953125-20 20s8.953125 20 20 20zm161 50c-11.046875 0-20 8.953125-20 20 0 11.027344-8.972656 20-20 20h-151c-11.027344 0-20-8.972656-20-20v-11c0-11.046875-8.953125-20-20-20s-20 8.953125-20 20v11c0 33.085938 26.914062 60 60 60h57v40h-37c-11.046875 0-20 8.953125-20 20s8.953125 20 20 20h115c11.046875 0 20-8.953125 20-20s-8.953125-20-20-20h-38v-40h54c33.085938 0 60-26.914062 60-60 0-11.046875-8.953125-20-20-20zm-352-124c-11.046875 0-20 8.953125-20 20v244c0 11.046875 8.953125 20 20 20s20-8.953125 20-20v-244c0-11.046875-8.953125-20-20-20zm-100-168c0-33.085938 26.914062-60 60-60s60 26.914062 60 60-26.914062 60-60 60-60-26.914062-60-60zm40 0c0 11.027344 8.972656 20 20 20s20-8.972656 20-20-8.972656-20-20-20-20 8.972656-20 20zm0 0"/></svg>