<?xml version="1.0" encoding="iso-8859-1"?>
<!-- Generator: Adobe Illustrator 19.0.0, SVG Export Plug-In . SVG Version: 6.00 Build 0)  -->
<svg version="1.1" id="Capa_1" xmlns="http://www.w3.org/2000/svg" xmlns:xlink="http://www.w3.org/1999/xlink" x="0px" y="0px"
	 viewBox="0 0 512 512" style="enable-background:new 0 0 512 512;" xml:space="preserve">
<g>
	<g>
		<g>
			<path d="M412,250c11.046,0,20-8.954,20-20v-80.051c0-11.046-8.954-20-20-20H100c-11.046,0-20,8.954-20,20v212
				c0,11.046,8.954,20,20,20h312c11.046,0,20-8.954,20-20V331c0-11.046-8.954-20-20-20c-11.046,0-20,8.954-20,20v10.949H120v-172
				h272V230C392,241.046,400.954,250,412,250z"/>
			<path d="M120,422H80c-22.056,0-40-17.944-40-40V130c0-22.056,17.944-40,40-40h40c11.046,0,20-8.954,20-20s-8.954-20-20-20H80
				C35.888,50,0,85.888,0,130v252c0,44.112,35.888,80,80,80h40c11.046,0,20-8.954,20-20C140,430.954,131.046,422,120,422z"/>
			<path d="M432,50h-40c-11.046,0-20,8.954-20,20s8.954,20,20,20h40c22.056,0,40,17.944,40,40v252c0,22.056-17.944,40-40,40h-40
				c-11.046,0-20,8.954-20,20c0,11.046,8.954,20,20,20h40c44.112,0,80-35.888,80-80V130C512,85.888,476.112,50,432,50z"/>
		</g>
	</g>
</g>
<g>
</g>
<g>
</g>
<g>
</g>
<g>
</g>
<g>
</g>
<g>
</g>
<g>
</g>
<g>
</g>
<g>
</g>
<g>
</g>
<g>
</g>
<g>
</g>
<g>
</g>
<g>
</g>
<g>
</g>
</svg>
