<?xml version="1.0" encoding="iso-8859-1"?>
<!-- Generator: Adobe Illustrator 19.0.0, SVG Export Plug-In . SVG Version: 6.00 Build 0)  -->
<svg version="1.1" id="Capa_1" xmlns="http://www.w3.org/2000/svg" xmlns:xlink="http://www.w3.org/1999/xlink" x="0px" y="0px"
	 viewBox="0 0 512 512" style="enable-background:new 0 0 512 512;" xml:space="preserve">
<g>
	<g>
		<path d="M375.613,99.926h-82.295c-10.341,0-18.753,8.413-18.753,18.753v73.533c0,10.34,8.412,18.753,18.753,18.753h33.462
			c-2.742,36.184-20.633,42.234-34.359,43.483c-5.15,0.469-9.094,4.787-9.094,9.959v45.519c0,2.75,1.132,5.378,3.131,7.267
			c1.861,1.76,4.321,2.733,6.868,2.733c0.188,0,0.375-0.005,0.563-0.016c33.133-1.864,58.529-13.392,75.481-34.264
			c16.586-20.423,24.996-49.967,24.996-87.811v-79.156C394.366,108.339,385.954,99.926,375.613,99.926z M374.367,197.833
			c0,33.134-6.904,58.436-20.521,75.202c-11.665,14.364-28.255,22.89-50.519,25.909V272.93
			c21.711-4.992,43.813-22.282,43.813-71.967c0-5.523-4.478-10-10-10h-42.574v-71.039h79.801V197.833z"/>
	</g>
</g>
<g>
	<g>
		<path d="M218.681,99.925h-82.295c-10.341,0-18.753,8.412-18.753,18.752v73.533c0,10.34,8.412,18.752,18.753,18.752h33.462
			c-2.742,36.184-20.633,42.235-34.359,43.483c-5.15,0.469-9.094,4.787-9.094,9.959v45.52c0,2.75,1.132,5.378,3.131,7.267
			c1.861,1.76,4.321,2.733,6.868,2.733c0.188,0.001,0.376-0.004,0.563-0.014c33.134-1.864,58.529-13.392,75.481-34.264
			c16.586-20.423,24.996-49.967,24.996-87.812v-79.156C237.434,108.338,229.022,99.925,218.681,99.925z M217.436,197.835
			c0,33.134-6.904,58.437-20.521,75.203c-11.664,14.362-28.254,22.889-50.518,25.908v-26.015h-0.001
			c21.711-4.992,43.813-22.282,43.813-71.967c0-5.523-4.478-10-10-10h-42.574v-71.038h79.801V197.835z"/>
	</g>
</g>
<g>
	<g>
		<path d="M419,0H93C41.72,0,0,41.72,0,93v234c0,51.28,41.72,93,93,93h14.667c5.522,0,10-4.477,10-10s-4.478-10-10-10H93
			c-40.252,0-73-32.748-73-73V93c0-40.252,32.748-73,73-73h326c40.252,0,73,32.748,73,73v234c0,8.778-1.559,17.198-4.412,25H375.271
			c-5.522,0-10,4.477-10,10s4.478,10,10,10h101.145c-13.376,17.029-34.133,28-57.417,28H309.116c-3.572,0-6.874,1.906-8.66,5
			L256,482l-44.456-77c-1.786-3.094-5.088-5-8.66-5h-20.551c-5.522,0-10,4.477-10,10s4.478,10,10,10h14.777l50.229,87
			c1.786,3.094,5.088,5,8.66,5s6.874-1.906,8.66-5l50.229-87H419c51.28,0,93-41.72,93-93V93C512,41.72,470.28,0,419,0z"/>
	</g>
</g>
<g>
	<g>
		<path d="M153.069,402.93C151.21,401.07,148.63,400,146,400s-5.21,1.07-7.07,2.93S136,407.37,136,410s1.069,5.21,2.93,7.07
			c1.861,1.86,4.44,2.93,7.07,2.93s5.21-1.07,7.069-2.93c1.86-1.86,2.931-4.44,2.931-7.07S154.93,404.79,153.069,402.93z"/>
	</g>
</g>
<g>
	<g>
		<path d="M344.839,354.93c-1.86-1.86-4.44-2.93-7.07-2.93c-2.639,0-5.209,1.07-7.069,2.93c-1.87,1.86-2.931,4.44-2.931,7.07
			s1.061,5.21,2.931,7.07c1.859,1.86,4.43,2.93,7.069,2.93c2.63,0,5.2-1.07,7.07-2.93c1.86-1.86,2.93-4.44,2.93-7.07
			S346.7,356.79,344.839,354.93z"/>
	</g>
</g>
<g>
</g>
<g>
</g>
<g>
</g>
<g>
</g>
<g>
</g>
<g>
</g>
<g>
</g>
<g>
</g>
<g>
</g>
<g>
</g>
<g>
</g>
<g>
</g>
<g>
</g>
<g>
</g>
<g>
</g>
</svg>
