<?xml version="1.0" encoding="utf-8"?>
<!-- Generator: Adobe Illustrator 15.1.0, SVG Export Plug-In . SVG Version: 6.00 Build 0)  -->
<!DOCTYPE svg PUBLIC "-//W3C//DTD SVG 1.1//EN" "http://www.w3.org/Graphics/SVG/1.1/DTD/svg11.dtd">
<svg version="1.1" xmlns="http://www.w3.org/2000/svg" xmlns:xlink="http://www.w3.org/1999/xlink" x="0px" y="0px"
	 width="141.73px" height="141.73px" viewBox="0 0 141.73 141.73" enable-background="new 0 0 141.73 141.73" xml:space="preserve">
<g id="Слой_1">
	<g>
		<path d="M5.754,64.616H0.71v-3.547h14.354v3.547H9.966v15.13H5.754V64.616z"/>
		<path d="M21.544,61.069v18.677h-4.212V61.069H21.544z"/>
		<path d="M28.83,64.616h-5.043v-3.547h14.354v3.547h-5.099v15.13H28.83V64.616z"/>
		<path d="M40.409,61.069h4.212v15.13h7.426v3.547H40.409V61.069z"/>
		<path d="M65.648,71.849h-6.872v4.434h7.676v3.464H54.564V61.069h11.5v3.464h-7.288v3.879h6.872V71.849z"/>
	</g>
	<g>
		<path d="M97.998,81.572c-0.232-0.232-0.553-0.366-0.883-0.366c-0.327,0-0.648,0.134-0.883,0.366
			c-0.231,0.232-0.364,0.554-0.364,0.883s0.133,0.65,0.364,0.883c0.234,0.233,0.556,0.366,0.883,0.366
			c0.329,0,0.65-0.133,0.883-0.366c0.233-0.232,0.367-0.554,0.367-0.883S98.231,81.805,97.998,81.572L97.998,81.572z M97.998,81.572
			"/>
		<path d="M99.566,51.726h-0.018c-0.689,0-1.248,0.559-1.248,1.249s0.559,1.249,1.248,1.249h0.018c0.689,0,1.248-0.559,1.248-1.249
			S100.256,51.726,99.566,51.726L99.566,51.726z M99.566,51.726"/>
		<path d="M132.374,66.266c-0.147-0.452-0.538-0.781-1.008-0.85l-4.607-0.668l-2.063-4.174c-0.21-0.426-0.644-0.696-1.119-0.696l0,0
			c-0.476,0-0.909,0.27-1.119,0.697l-2.06,4.175l-4.607,0.671c-0.471,0.068-0.861,0.398-1.008,0.85
			c-0.146,0.453-0.024,0.949,0.316,1.28l3.335,3.249l-0.786,4.588c-0.08,0.469,0.112,0.942,0.497,1.222
			c0.218,0.157,0.475,0.238,0.734,0.238c0.198,0,0.397-0.048,0.581-0.145l4.12-2.167l4.121,2.166
			c0.421,0.221,0.931,0.184,1.315-0.096s0.576-0.753,0.496-1.222l-0.788-4.589l3.333-3.25
			C132.398,67.214,132.521,66.718,132.374,66.266L132.374,66.266z M126.513,69.467c-0.295,0.287-0.429,0.7-0.359,1.105l0.471,2.742
			l-2.463-1.294c-0.363-0.191-0.798-0.191-1.161,0l-2.464,1.296l0.47-2.743c0.069-0.405-0.064-0.818-0.359-1.105l-1.992-1.941
			l2.754-0.401c0.406-0.059,0.758-0.314,0.939-0.684l1.23-2.495l1.232,2.495c0.182,0.369,0.533,0.624,0.939,0.683l2.754,0.399
			L126.513,69.467z M126.513,69.467"/>
		<path d="M124.843,53.683v-1.208c0-3.442-2.8-6.243-6.242-6.243h-3.839c-0.015,0-0.028,0.002-0.042,0.002
			c-0.438-1.583-1.891-2.749-3.61-2.749h-6.393c-0.562-2.292-2.633-3.996-5.094-3.996c-2.462,0-4.532,1.705-5.094,3.996h-6.393
			c-1.72,0-3.172,1.165-3.609,2.746h-3.882c-3.442,0-6.243,2.801-6.243,6.243v44.698c0,3.441,2.801,6.242,6.243,6.242h37.955
			c3.442,0,6.242-2.801,6.242-6.242v-3.111c0-0.041-0.002-0.081-0.006-0.122l4.456,3.438c0.223,0.172,0.492,0.26,0.763,0.26
			c0.187,0,0.376-0.042,0.551-0.128c0.427-0.21,0.697-0.644,0.697-1.12V80.912c4.211-2.597,7.024-7.25,7.024-12.55
			C138.328,60.66,132.385,54.319,124.843,53.683L124.843,53.683z M122.346,94.062v3.111c0,2.064-1.68,3.745-3.745,3.745H80.646
			c-2.065,0-3.746-1.681-3.746-3.745V52.475c0-2.065,1.681-3.746,3.746-3.746h3.745v4.245c0,0.69,0.559,1.249,1.249,1.249h9.192
			c0.69,0,1.249-0.559,1.249-1.249c0-0.689-0.559-1.249-1.249-1.249h-7.944v-4.494c0-0.689,0.561-1.249,1.249-1.249h7.491
			c0.689,0,1.248-0.559,1.248-1.249c0-1.515,1.232-2.748,2.747-2.748s2.746,1.232,2.746,2.748c0,0.689,0.56,1.249,1.249,1.249h7.491
			c0.688,0,1.248,0.559,1.248,1.249v4.494h-7.188c-0.689,0-1.249,0.559-1.249,1.249c0,0.69,0.56,1.249,1.249,1.249h8.437
			c0.689,0,1.248-0.559,1.248-1.249v-4.245h3.746c2.065,0,3.745,1.68,3.745,3.746v1.208c-6.13,0.518-11.204,4.804-12.888,10.528
			H97.116c-0.689,0-1.249,0.559-1.249,1.249c0,0.69,0.56,1.249,1.249,1.249h11.839c-0.061,0.543-0.093,1.096-0.093,1.655
			c0,0.624,0.04,1.238,0.115,1.842H97.116c-0.689,0-1.249,0.559-1.249,1.249c0,0.69,0.56,1.249,1.249,1.249h12.398
			c1.057,3.421,3.327,6.313,6.308,8.172v0.334h-14.14c-0.689,0-1.248,0.559-1.248,1.248s0.559,1.249,1.248,1.249h14.14v3.495H97.116
			c-0.689,0-1.249,0.56-1.249,1.249s0.56,1.248,1.249,1.248h18.706v6.692c0,0.477,0.271,0.911,0.697,1.12
			c0.428,0.21,0.937,0.159,1.313-0.131l4.527-3.493C122.353,93.942,122.346,94.001,122.346,94.062L122.346,94.062z M128.807,93.849
			l-4.481-3.457c-0.449-0.347-1.076-0.347-1.525,0l-4.48,3.457v-11.73c1.639,0.631,3.417,0.978,5.275,0.978
			c1.834,0,3.591-0.339,5.212-0.954V93.849z M123.595,80.599c-6.747,0-12.235-5.489-12.235-12.236
			c0-6.747,5.488-12.235,12.235-12.235s12.235,5.489,12.235,12.235C135.83,75.109,130.342,80.599,123.595,80.599L123.595,80.599z
			 M123.595,80.599"/>
		<path d="M93.041,67.01c-0.146-0.452-0.537-0.782-1.007-0.85l-2.616-0.381l-1.17-2.37c-0.21-0.426-0.644-0.696-1.119-0.696l0,0
			c-0.476,0-0.909,0.27-1.12,0.696l-1.17,2.369l-2.616,0.38c-0.47,0.068-0.86,0.397-1.008,0.849
			c-0.146,0.452-0.024,0.948,0.315,1.281l1.893,1.845l-0.447,2.604c-0.08,0.469,0.111,0.942,0.496,1.222s0.895,0.317,1.315,0.096
			l2.34-1.229l2.339,1.23c0.183,0.097,0.382,0.144,0.582,0.144c0.258,0,0.516-0.081,0.733-0.238
			c0.385-0.279,0.577-0.753,0.496-1.221l-0.445-2.606l1.893-1.844C93.065,67.959,93.188,67.462,93.041,67.01L93.041,67.01z
			 M88.619,68.804c-0.295,0.287-0.43,0.7-0.359,1.105l0.13,0.759l-0.682-0.358c-0.182-0.096-0.382-0.143-0.581-0.143
			s-0.398,0.047-0.581,0.143l-0.682,0.358l0.131-0.759c0.069-0.405-0.064-0.818-0.359-1.105l-0.551-0.538l0.762-0.11
			c0.407-0.059,0.759-0.314,0.94-0.683l0.341-0.69l0.341,0.691c0.182,0.368,0.533,0.624,0.939,0.683l0.762,0.112L88.619,68.804z
			 M88.619,68.804"/>
		<path d="M93.041,84.006c-0.146-0.452-0.537-0.781-1.007-0.85l-2.616-0.381l-1.17-2.371c-0.21-0.426-0.644-0.696-1.119-0.696l0,0
			c-0.476,0-0.909,0.271-1.12,0.696l-1.17,2.37l-2.616,0.379c-0.47,0.068-0.86,0.397-1.008,0.85
			c-0.146,0.452-0.024,0.948,0.315,1.28l1.893,1.845l-0.447,2.605c-0.081,0.469,0.111,0.941,0.496,1.222
			c0.385,0.279,0.894,0.316,1.314,0.095l2.341-1.229l2.339,1.23c0.183,0.097,0.382,0.144,0.581,0.144
			c0.259,0,0.517-0.08,0.734-0.237c0.384-0.279,0.577-0.753,0.496-1.222l-0.446-2.605l1.894-1.844
			C93.065,84.954,93.188,84.458,93.041,84.006L93.041,84.006z M88.619,85.8c-0.295,0.286-0.43,0.7-0.359,1.105l0.13,0.758
			l-0.682-0.358c-0.182-0.096-0.382-0.143-0.581-0.143s-0.398,0.047-0.581,0.143l-0.682,0.358l0.131-0.759
			c0.069-0.405-0.064-0.818-0.359-1.105l-0.551-0.537l0.762-0.11c0.407-0.06,0.759-0.314,0.94-0.683l0.341-0.69l0.341,0.69
			c0.182,0.368,0.533,0.624,0.939,0.683l0.762,0.111L88.619,85.8z M88.619,85.8"/>
	</g>
</g>
<g id="Слой_1__x28_копия_x29_" display="none">
	<g display="inline">
		<path d="M26.498,78.072c-0.232-0.232-0.553-0.366-0.882-0.366c-0.328,0-0.649,0.134-0.883,0.366
			c-0.232,0.232-0.365,0.554-0.365,0.883s0.132,0.65,0.365,0.883c0.233,0.233,0.555,0.366,0.883,0.366
			c0.329,0,0.65-0.133,0.882-0.366c0.234-0.232,0.367-0.554,0.367-0.883S26.732,78.305,26.498,78.072L26.498,78.072z M26.498,78.072
			"/>
		<path d="M28.066,48.226h-0.017c-0.69,0-1.249,0.559-1.249,1.249s0.559,1.249,1.249,1.249h0.017c0.689,0,1.249-0.559,1.249-1.249
			S28.756,48.226,28.066,48.226L28.066,48.226z M28.066,48.226"/>
		<path d="M60.874,62.766c-0.147-0.452-0.538-0.781-1.008-0.85l-4.607-0.668l-2.062-4.174c-0.21-0.426-0.645-0.696-1.119-0.696
			h-0.001c-0.475,0-0.909,0.27-1.119,0.697l-2.059,4.175l-4.607,0.671c-0.471,0.068-0.861,0.398-1.007,0.85
			c-0.147,0.453-0.024,0.949,0.316,1.28l3.334,3.249l-0.786,4.588c-0.081,0.469,0.112,0.942,0.497,1.222
			c0.218,0.157,0.475,0.238,0.734,0.238c0.199,0,0.398-0.048,0.581-0.145l4.121-2.167l4.121,2.166
			c0.421,0.221,0.931,0.184,1.315-0.096c0.385-0.279,0.577-0.753,0.497-1.222l-0.789-4.589l3.333-3.25
			C60.899,63.714,61.021,63.218,60.874,62.766L60.874,62.766z M55.012,65.967c-0.294,0.287-0.429,0.7-0.359,1.105l0.471,2.742
			l-2.463-1.294c-0.364-0.19-0.799-0.19-1.162,0l-2.463,1.296l0.469-2.743c0.07-0.405-0.064-0.818-0.359-1.105l-1.993-1.941
			l2.754-0.401c0.407-0.059,0.758-0.314,0.939-0.684l1.231-2.495l1.232,2.495c0.183,0.369,0.534,0.624,0.94,0.683l2.754,0.399
			L55.012,65.967z M55.012,65.967"/>
		<path d="M53.343,50.183v-1.208c0-3.442-2.8-6.243-6.243-6.243h-3.838c-0.015,0-0.029,0.002-0.043,0.002
			c-0.438-1.583-1.89-2.749-3.61-2.749h-6.393c-0.561-2.292-2.632-3.996-5.093-3.996c-2.462,0-4.532,1.705-5.094,3.996h-6.393
			c-1.719,0-3.171,1.165-3.609,2.746H9.145c-3.442,0-6.243,2.801-6.243,6.243v44.698c0,3.441,2.801,6.242,6.243,6.242h37.956
			c3.442,0,6.243-2.801,6.243-6.242v-3.111c0-0.041-0.002-0.081-0.006-0.122l4.456,3.438c0.222,0.172,0.492,0.26,0.763,0.26
			c0.187,0,0.376-0.042,0.55-0.128c0.427-0.21,0.698-0.644,0.698-1.12V77.412c4.21-2.597,7.023-7.25,7.023-12.55
			C66.828,57.16,60.885,50.819,53.343,50.183L53.343,50.183z M50.846,90.562v3.111c0,2.064-1.68,3.745-3.746,3.745H9.145
			c-2.065,0-3.746-1.681-3.746-3.745V48.975c0-2.065,1.68-3.746,3.746-3.746h3.746v4.245c0,0.69,0.559,1.249,1.249,1.249h9.193
			c0.689,0,1.249-0.559,1.249-1.249c0-0.689-0.559-1.249-1.249-1.249h-7.945v-4.494c0-0.689,0.56-1.249,1.249-1.249h7.491
			c0.689,0,1.249-0.559,1.249-1.249c0-1.515,1.232-2.748,2.747-2.748c1.514,0,2.747,1.232,2.747,2.748
			c0,0.689,0.559,1.249,1.249,1.249h7.491c0.688,0,1.249,0.559,1.249,1.249v4.494h-7.188c-0.689,0-1.249,0.559-1.249,1.249
			c0,0.69,0.559,1.249,1.249,1.249h8.437c0.689,0,1.249-0.559,1.249-1.249v-4.245h3.746c2.065,0,3.746,1.68,3.746,3.746v1.208
			c-6.131,0.518-11.205,4.804-12.889,10.528H25.616c-0.689,0-1.249,0.559-1.249,1.249c0,0.69,0.559,1.249,1.249,1.249h11.839
			c-0.061,0.543-0.094,1.096-0.094,1.655c0,0.624,0.041,1.238,0.116,1.842H25.616c-0.689,0-1.249,0.559-1.249,1.249
			s0.559,1.249,1.249,1.249h12.399c1.056,3.421,3.327,6.313,6.307,8.172v0.334H30.183c-0.689,0-1.249,0.559-1.249,1.248
			s0.559,1.249,1.249,1.249h14.139v3.495H25.616c-0.689,0-1.249,0.56-1.249,1.249s0.559,1.248,1.249,1.248h18.706v6.692
			c0,0.477,0.27,0.911,0.697,1.12c0.428,0.21,0.937,0.159,1.313-0.131l4.527-3.493C50.852,90.442,50.846,90.501,50.846,90.562
			L50.846,90.562z M57.307,90.349l-4.481-3.457c-0.45-0.347-1.076-0.347-1.525,0l-4.481,3.457v-11.73
			c1.639,0.631,3.417,0.978,5.275,0.978c1.834,0,3.59-0.339,5.212-0.954V90.349z M52.095,77.099
			c-6.747,0-12.235-5.489-12.235-12.236c0-6.747,5.488-12.235,12.235-12.235c6.747,0,12.236,5.489,12.236,12.235
			C64.331,71.609,58.841,77.099,52.095,77.099L52.095,77.099z M52.095,77.099"/>
		<path d="M21.542,63.51c-0.147-0.452-0.538-0.782-1.008-0.85l-2.616-0.381l-1.169-2.37c-0.21-0.426-0.644-0.696-1.12-0.696h0
			c-0.475,0-0.909,0.27-1.119,0.696l-1.17,2.369l-2.616,0.38c-0.47,0.068-0.861,0.397-1.008,0.849
			c-0.147,0.452-0.025,0.948,0.315,1.281l1.893,1.845l-0.448,2.605c-0.081,0.468,0.111,0.942,0.496,1.221
			c0.385,0.28,0.895,0.317,1.315,0.096l2.339-1.229l2.339,1.23c0.183,0.097,0.382,0.143,0.582,0.143c0.258,0,0.517-0.08,0.733-0.238
			c0.385-0.278,0.578-0.752,0.497-1.22l-0.446-2.606l1.893-1.844C21.566,64.459,21.688,63.962,21.542,63.51L21.542,63.51z
			 M17.119,65.304c-0.294,0.287-0.429,0.7-0.36,1.105l0.13,0.759l-0.681-0.358c-0.182-0.096-0.382-0.143-0.582-0.143
			c-0.199,0-0.398,0.047-0.58,0.143l-0.682,0.358l0.13-0.759c0.07-0.405-0.064-0.818-0.359-1.105l-0.551-0.538l0.762-0.11
			c0.407-0.059,0.758-0.314,0.94-0.683l0.341-0.69l0.341,0.691c0.182,0.368,0.533,0.624,0.939,0.683l0.762,0.112L17.119,65.304z
			 M17.119,65.304"/>
		<path d="M21.542,80.506c-0.147-0.452-0.538-0.781-1.008-0.85l-2.616-0.381l-1.169-2.371c-0.21-0.426-0.644-0.696-1.12-0.696h0
			c-0.475,0-0.909,0.271-1.119,0.696l-1.17,2.37l-2.616,0.379c-0.47,0.068-0.861,0.397-1.008,0.85s-0.025,0.948,0.315,1.28
			l1.892,1.845l-0.447,2.605c-0.081,0.469,0.112,0.941,0.497,1.222c0.384,0.279,0.894,0.316,1.314,0.095l2.34-1.229l2.339,1.23
			c0.183,0.097,0.382,0.144,0.581,0.144c0.259,0,0.516-0.08,0.734-0.237c0.384-0.279,0.578-0.753,0.497-1.222l-0.446-2.605
			l1.894-1.844C21.565,81.454,21.688,80.958,21.542,80.506L21.542,80.506z M17.119,82.3c-0.294,0.286-0.429,0.7-0.36,1.105
			l0.13,0.758l-0.681-0.358c-0.182-0.096-0.382-0.143-0.582-0.143c-0.199,0-0.398,0.047-0.58,0.143l-0.682,0.358l0.13-0.759
			c0.07-0.405-0.064-0.818-0.359-1.105l-0.551-0.537l0.762-0.11c0.407-0.06,0.758-0.314,0.94-0.683l0.341-0.69l0.341,0.69
			c0.182,0.368,0.533,0.624,0.939,0.683l0.762,0.111L17.119,82.3z M17.119,82.3"/>
	</g>
	<g display="inline">
		<path d="M80.254,64.616h-5.043v-3.547h14.354v3.547h-5.099v15.13h-4.212V64.616z"/>
		<path d="M96.045,61.069v18.677h-4.213V61.069H96.045z"/>
		<path d="M103.33,64.616h-5.043v-3.547h14.354v3.547h-5.099v15.13h-4.212V64.616z"/>
		<path d="M114.908,61.069h4.213v15.13h7.426v3.547h-11.639V61.069z"/>
		<path d="M140.148,71.849h-6.872v4.434h7.676v3.464h-11.888V61.069h11.5v3.464h-7.288v3.879h6.872V71.849z"/>
	</g>
</g>
<g id="Слой_1__x28_копия2_x29_" display="none">
	<g display="inline">
		<path d="M68.998,114.645c-0.232-0.232-0.553-0.366-0.882-0.366c-0.328,0-0.649,0.134-0.883,0.366
			c-0.232,0.232-0.365,0.554-0.365,0.883s0.132,0.65,0.365,0.883c0.233,0.233,0.555,0.366,0.883,0.366
			c0.329,0,0.65-0.133,0.882-0.366c0.234-0.232,0.367-0.554,0.367-0.883S69.232,114.877,68.998,114.645L68.998,114.645z
			 M68.998,114.645"/>
		<path d="M70.566,84.798h-0.017c-0.69,0-1.249,0.56-1.249,1.249s0.559,1.248,1.249,1.248h0.017c0.689,0,1.249-0.559,1.249-1.248
			S71.256,84.798,70.566,84.798L70.566,84.798z M70.566,84.798"/>
		<path d="M103.374,99.338c-0.147-0.452-0.538-0.781-1.008-0.85l-4.607-0.668l-2.063-4.174c-0.21-0.427-0.644-0.696-1.119-0.696l0,0
			c-0.476,0-0.909,0.27-1.119,0.696l-2.06,4.176l-4.607,0.67c-0.471,0.068-0.861,0.398-1.008,0.851s-0.024,0.948,0.316,1.28
			l3.335,3.248l-0.786,4.589c-0.08,0.469,0.112,0.942,0.497,1.222c0.218,0.157,0.475,0.238,0.734,0.238
			c0.198,0,0.397-0.048,0.581-0.145l4.12-2.167l4.121,2.166c0.421,0.221,0.931,0.184,1.315-0.096s0.576-0.753,0.496-1.222
			l-0.788-4.589l3.333-3.25C103.398,100.286,103.521,99.79,103.374,99.338L103.374,99.338z M97.513,102.539
			c-0.295,0.287-0.429,0.7-0.359,1.105l0.471,2.742l-2.463-1.294c-0.363-0.191-0.798-0.191-1.161,0l-2.464,1.296l0.47-2.743
			c0.069-0.404-0.064-0.817-0.359-1.105l-1.992-1.941l2.754-0.4c0.406-0.06,0.758-0.314,0.939-0.684l1.23-2.495l1.232,2.495
			c0.182,0.368,0.533,0.623,0.939,0.683l2.754,0.399L97.513,102.539z M97.513,102.539"/>
		<path d="M95.843,86.755v-1.208c0-3.442-2.8-6.242-6.242-6.242h-3.839c-0.015,0-0.028,0.001-0.042,0.002
			c-0.438-1.583-1.891-2.749-3.61-2.749h-6.393c-0.562-2.291-2.633-3.995-5.094-3.995c-2.462,0-4.532,1.704-5.094,3.995h-6.393
			c-1.719,0-3.171,1.165-3.609,2.747h-3.882c-3.442,0-6.243,2.8-6.243,6.242v44.698c0,3.441,2.801,6.242,6.243,6.242h37.956
			c3.442,0,6.242-2.801,6.242-6.242v-3.111c0-0.041-0.002-0.081-0.006-0.122l4.456,3.438c0.223,0.172,0.492,0.26,0.763,0.26
			c0.187,0,0.376-0.042,0.551-0.128c0.427-0.21,0.697-0.644,0.697-1.12v-15.477c4.211-2.597,7.024-7.25,7.024-12.55
			C109.328,93.732,103.385,87.392,95.843,86.755L95.843,86.755z M93.346,127.134v3.111c0,2.064-1.68,3.745-3.745,3.745H51.645
			c-2.065,0-3.746-1.681-3.746-3.745V85.547c0-2.065,1.68-3.745,3.746-3.745h3.746v4.244c0,0.689,0.559,1.249,1.249,1.249h9.193
			c0.689,0,1.249-0.56,1.249-1.249s-0.559-1.248-1.249-1.248h-7.945v-4.494c0-0.689,0.56-1.249,1.249-1.249h7.491
			c0.689,0,1.249-0.559,1.249-1.248c0-1.516,1.232-2.747,2.747-2.747c1.515,0,2.746,1.231,2.746,2.747
			c0,0.689,0.56,1.248,1.249,1.248h7.491c0.688,0,1.248,0.56,1.248,1.249v4.494H76.17c-0.689,0-1.249,0.559-1.249,1.248
			s0.56,1.249,1.249,1.249h8.437c0.689,0,1.248-0.56,1.248-1.249v-4.244h3.746c2.065,0,3.745,1.68,3.745,3.745v1.208
			c-6.13,0.518-11.204,4.805-12.888,10.528H68.116c-0.689,0-1.249,0.559-1.249,1.248s0.559,1.249,1.249,1.249h11.839
			c-0.061,0.543-0.093,1.096-0.093,1.654c0,0.624,0.04,1.238,0.115,1.842H68.116c-0.689,0-1.249,0.56-1.249,1.249
			s0.559,1.248,1.249,1.248h12.398c1.057,3.421,3.327,6.313,6.308,8.172v0.334h-14.14c-0.689,0-1.248,0.559-1.248,1.248
			s0.559,1.249,1.248,1.249h14.14v3.495H68.116c-0.689,0-1.249,0.56-1.249,1.249s0.559,1.248,1.249,1.248h18.706v6.692
			c0,0.477,0.271,0.911,0.697,1.12c0.428,0.21,0.937,0.159,1.313-0.131l4.527-3.493C93.353,127.015,93.346,127.073,93.346,127.134
			L93.346,127.134z M99.807,126.921l-4.481-3.457c-0.449-0.347-1.076-0.347-1.525,0l-4.48,3.457v-11.73
			c1.639,0.631,3.417,0.978,5.275,0.978c1.834,0,3.591-0.339,5.212-0.954V126.921z M94.595,113.671
			c-6.747,0-12.235-5.489-12.235-12.236s5.488-12.235,12.235-12.235s12.235,5.488,12.235,12.235S101.342,113.671,94.595,113.671
			L94.595,113.671z M94.595,113.671"/>
		<path d="M64.042,100.082c-0.147-0.451-0.538-0.781-1.008-0.85l-2.616-0.381l-1.169-2.37c-0.21-0.426-0.644-0.696-1.12-0.696h0
			c-0.475,0-0.909,0.27-1.119,0.695l-1.17,2.37l-2.616,0.38c-0.47,0.068-0.861,0.397-1.008,0.849
			c-0.146,0.452-0.025,0.948,0.315,1.28l1.893,1.846l-0.448,2.604c-0.081,0.469,0.111,0.942,0.496,1.222s0.895,0.317,1.315,0.096
			l2.339-1.229l2.339,1.23c0.183,0.097,0.382,0.144,0.582,0.144c0.258,0,0.517-0.081,0.733-0.238
			c0.385-0.279,0.578-0.753,0.497-1.221l-0.446-2.605l1.893-1.845C64.066,101.031,64.188,100.535,64.042,100.082L64.042,100.082z
			 M59.619,101.877c-0.294,0.286-0.429,0.699-0.36,1.104l0.13,0.759l-0.681-0.358c-0.182-0.096-0.382-0.144-0.582-0.144
			c-0.199,0-0.398,0.048-0.58,0.143l-0.682,0.359l0.13-0.76c0.07-0.404-0.064-0.818-0.359-1.105l-0.551-0.537l0.762-0.11
			c0.407-0.06,0.758-0.314,0.94-0.683l0.341-0.69l0.341,0.69c0.182,0.368,0.533,0.624,0.939,0.684l0.762,0.111L59.619,101.877z
			 M59.619,101.877"/>
		<path d="M64.042,117.078c-0.147-0.452-0.538-0.781-1.008-0.85l-2.616-0.381l-1.169-2.371c-0.21-0.426-0.644-0.696-1.12-0.696h0
			c-0.475,0-0.909,0.271-1.119,0.696l-1.17,2.37l-2.616,0.379c-0.47,0.068-0.861,0.397-1.008,0.85
			c-0.146,0.452-0.025,0.948,0.315,1.28l1.892,1.845l-0.447,2.605c-0.081,0.469,0.112,0.941,0.497,1.222
			c0.384,0.279,0.894,0.316,1.314,0.095l2.34-1.229l2.339,1.23c0.183,0.097,0.382,0.144,0.581,0.144c0.259,0,0.516-0.08,0.734-0.237
			c0.384-0.279,0.578-0.753,0.497-1.222l-0.446-2.605l1.894-1.844C64.065,118.026,64.188,117.53,64.042,117.078L64.042,117.078z
			 M59.619,118.872c-0.294,0.286-0.429,0.7-0.36,1.105l0.13,0.758l-0.681-0.358c-0.182-0.096-0.382-0.143-0.582-0.143
			c-0.199,0-0.398,0.047-0.58,0.143l-0.682,0.358l0.13-0.759c0.07-0.405-0.064-0.818-0.359-1.105l-0.551-0.537l0.762-0.11
			c0.407-0.06,0.758-0.314,0.94-0.683l0.341-0.69l0.341,0.69c0.182,0.368,0.533,0.624,0.939,0.683l0.762,0.111L59.619,118.872z
			 M59.619,118.872"/>
	</g>
	<g display="inline">
		<path d="M40.754,35.116H35.71v-3.547h14.354v3.547h-5.099v15.13h-4.212V35.116z"/>
		<path d="M56.544,31.569v18.677h-4.212V31.569H56.544z"/>
		<path d="M63.83,35.116h-5.043v-3.547h14.354v3.547h-5.099v15.13H63.83V35.116z"/>
		<path d="M75.408,31.569h4.213v15.13h7.426v3.547H75.408V31.569z"/>
		<path d="M100.648,42.349h-6.872v4.434h7.676v3.464H89.564V31.569h11.5v3.464h-7.288v3.879h6.872V42.349z"/>
	</g>
</g>
<g id="Слой_1__x28_копия3_x29_" display="none">
	<g display="inline">
		<path d="M65.998,48.831c-0.232-0.232-0.553-0.366-0.882-0.366c-0.328,0-0.649,0.134-0.883,0.366
			c-0.232,0.232-0.365,0.554-0.365,0.882c0,0.33,0.132,0.651,0.365,0.883c0.233,0.233,0.555,0.367,0.883,0.367
			c0.329,0,0.65-0.134,0.882-0.367c0.234-0.232,0.367-0.553,0.367-0.883C66.365,49.384,66.232,49.063,65.998,48.831L65.998,48.831z
			 M65.998,48.831"/>
		<path d="M67.566,18.984h-0.017c-0.69,0-1.249,0.559-1.249,1.249s0.559,1.249,1.249,1.249h0.017c0.689,0,1.249-0.559,1.249-1.249
			S68.256,18.984,67.566,18.984L67.566,18.984z M67.566,18.984"/>
		<path d="M100.374,33.524c-0.147-0.452-0.538-0.781-1.008-0.85l-4.607-0.668l-2.063-4.174c-0.21-0.426-0.644-0.696-1.119-0.696l0,0
			c-0.476,0-0.909,0.27-1.119,0.697l-2.06,4.175l-4.607,0.671c-0.471,0.068-0.861,0.398-1.008,0.85
			c-0.146,0.453-0.024,0.949,0.316,1.28l3.335,3.249l-0.786,4.588c-0.08,0.469,0.112,0.942,0.497,1.221
			c0.218,0.158,0.475,0.238,0.734,0.238c0.198,0,0.397-0.047,0.581-0.144l4.12-2.167l4.121,2.166
			c0.421,0.221,0.931,0.184,1.315-0.095c0.385-0.28,0.576-0.753,0.496-1.222l-0.788-4.589l3.333-3.25
			C100.398,34.472,100.521,33.976,100.374,33.524L100.374,33.524z M94.513,36.725c-0.295,0.287-0.429,0.7-0.359,1.105l0.471,2.742
			l-2.463-1.294c-0.363-0.19-0.798-0.19-1.161,0l-2.464,1.296l0.47-2.743c0.069-0.405-0.064-0.818-0.359-1.105l-1.992-1.941
			l2.754-0.401c0.406-0.059,0.758-0.314,0.939-0.683l1.23-2.496l1.232,2.495c0.182,0.369,0.533,0.624,0.939,0.683l2.754,0.399
			L94.513,36.725z M94.513,36.725"/>
		<path d="M92.843,20.941v-1.208c0-3.442-2.8-6.243-6.242-6.243h-3.839c-0.015,0-0.028,0.002-0.042,0.002
			c-0.438-1.583-1.891-2.749-3.61-2.749h-6.393c-0.562-2.292-2.633-3.996-5.094-3.996c-2.462,0-4.532,1.705-5.094,3.996h-6.393
			c-1.719,0-3.171,1.165-3.609,2.746h-3.882c-3.442,0-6.243,2.801-6.243,6.243v44.698c0,3.442,2.801,6.243,6.243,6.243h37.956
			c3.442,0,6.242-2.801,6.242-6.243V61.32c0-0.041-0.002-0.082-0.006-0.122l4.456,3.437c0.223,0.172,0.492,0.26,0.763,0.26
			c0.187,0,0.376-0.042,0.551-0.128c0.427-0.21,0.697-0.645,0.697-1.121V48.17c4.211-2.596,7.023-7.25,7.023-12.549
			C106.327,27.918,100.385,21.578,92.843,20.941L92.843,20.941z M90.346,61.32v3.111c0,2.064-1.68,3.746-3.745,3.746H48.645
			c-2.065,0-3.746-1.681-3.746-3.746V19.733c0-2.065,1.68-3.746,3.746-3.746h3.746v4.245c0,0.69,0.559,1.249,1.249,1.249h9.193
			c0.689,0,1.249-0.559,1.249-1.249c0-0.689-0.559-1.249-1.249-1.249h-7.945V14.49c0-0.689,0.56-1.249,1.249-1.249h7.491
			c0.689,0,1.249-0.559,1.249-1.249c0-1.515,1.232-2.748,2.747-2.748c1.514,0,2.747,1.232,2.747,2.748
			c0,0.689,0.559,1.249,1.249,1.249h7.491c0.688,0,1.248,0.559,1.248,1.249v4.494H73.17c-0.689,0-1.249,0.559-1.249,1.249
			c0,0.69,0.56,1.249,1.249,1.249h8.437c0.689,0,1.248-0.559,1.248-1.249v-4.245h3.746c2.065,0,3.745,1.68,3.745,3.746v1.208
			c-6.13,0.518-11.204,4.804-12.888,10.528H65.116c-0.689,0-1.249,0.559-1.249,1.249c0,0.69,0.559,1.249,1.249,1.249h11.839
			c-0.061,0.543-0.093,1.096-0.093,1.655c0,0.624,0.04,1.238,0.115,1.842H65.116c-0.689,0-1.249,0.559-1.249,1.249
			s0.559,1.249,1.249,1.249h12.398c1.057,3.421,3.327,6.313,6.308,8.171v0.334H69.683c-0.689,0-1.249,0.559-1.249,1.249
			s0.559,1.249,1.249,1.249h14.139v3.496H65.116c-0.689,0-1.249,0.559-1.249,1.249s0.559,1.249,1.249,1.249h18.706v6.692
			c0,0.476,0.271,0.911,0.697,1.121c0.428,0.209,0.937,0.158,1.313-0.132l4.527-3.493C90.353,61.201,90.346,61.259,90.346,61.32
			L90.346,61.32z M96.807,61.107l-4.481-3.458c-0.449-0.346-1.076-0.346-1.525,0l-4.48,3.458V49.376
			c1.639,0.631,3.417,0.978,5.275,0.978c1.834,0,3.591-0.338,5.212-0.953V61.107z M91.595,47.856
			c-6.747,0-12.235-5.489-12.235-12.236c0-6.747,5.488-12.235,12.235-12.235s12.235,5.489,12.235,12.235
			C103.83,42.368,98.342,47.856,91.595,47.856L91.595,47.856z M91.595,47.856"/>
		<path d="M61.042,34.269c-0.147-0.452-0.538-0.782-1.008-0.85l-2.616-0.381l-1.169-2.37c-0.21-0.426-0.644-0.696-1.12-0.696h0
			c-0.475,0-0.909,0.27-1.119,0.696l-1.17,2.369l-2.616,0.38c-0.47,0.068-0.861,0.397-1.008,0.849
			c-0.147,0.452-0.025,0.948,0.315,1.281l1.893,1.845l-0.448,2.605c-0.081,0.468,0.111,0.942,0.496,1.221
			c0.385,0.28,0.895,0.317,1.315,0.096l2.339-1.229l2.339,1.23c0.183,0.097,0.382,0.143,0.582,0.143c0.258,0,0.517-0.08,0.733-0.238
			c0.385-0.278,0.578-0.752,0.497-1.22l-0.446-2.606l1.893-1.844C61.066,35.217,61.188,34.721,61.042,34.269L61.042,34.269z
			 M56.619,36.063c-0.294,0.287-0.429,0.7-0.36,1.105l0.13,0.759l-0.681-0.358c-0.182-0.096-0.382-0.143-0.582-0.143
			c-0.199,0-0.398,0.047-0.58,0.143l-0.682,0.358l0.13-0.759c0.07-0.405-0.064-0.818-0.359-1.105l-0.551-0.538l0.762-0.11
			c0.407-0.059,0.758-0.314,0.94-0.683l0.341-0.69l0.341,0.691c0.182,0.368,0.533,0.624,0.939,0.683l0.762,0.112L56.619,36.063z
			 M56.619,36.063"/>
		<path d="M61.042,51.264c-0.147-0.451-0.538-0.781-1.008-0.85l-2.616-0.38l-1.169-2.371c-0.21-0.426-0.644-0.696-1.12-0.696h0
			c-0.475,0-0.909,0.27-1.119,0.695l-1.17,2.371l-2.616,0.379c-0.47,0.068-0.861,0.397-1.008,0.85
			c-0.147,0.452-0.025,0.948,0.315,1.279l1.892,1.846l-0.447,2.605c-0.081,0.469,0.112,0.942,0.497,1.222
			c0.384,0.279,0.894,0.316,1.314,0.095l2.34-1.229l2.339,1.231c0.183,0.096,0.382,0.143,0.581,0.143
			c0.259,0,0.516-0.08,0.734-0.238c0.384-0.279,0.578-0.753,0.497-1.221l-0.446-2.606l1.894-1.844
			C61.065,52.212,61.188,51.716,61.042,51.264L61.042,51.264z M56.619,53.058c-0.294,0.287-0.429,0.7-0.36,1.105l0.13,0.759
			l-0.681-0.358c-0.182-0.096-0.382-0.144-0.582-0.144c-0.199,0-0.398,0.048-0.58,0.144l-0.682,0.358l0.13-0.758
			c0.07-0.406-0.064-0.819-0.359-1.105l-0.551-0.538l0.762-0.11c0.407-0.06,0.758-0.315,0.94-0.683l0.341-0.69l0.341,0.69
			c0.182,0.369,0.533,0.625,0.939,0.684l0.762,0.111L56.619,53.058z M56.619,53.058"/>
	</g>
	<g display="inline">
		<path d="M44.754,98.116H39.71v-3.547h14.354v3.547h-5.099v15.13h-4.212V98.116z"/>
		<path d="M60.544,94.569v18.677h-4.212V94.569H60.544z"/>
		<path d="M67.83,98.116h-5.043v-3.547h14.354v3.547h-5.099v15.13H67.83V98.116z"/>
		<path d="M79.408,94.569h4.213v15.13h7.426v3.547H79.408V94.569z"/>
		<path d="M104.648,105.349h-6.872v4.434h7.676v3.464H93.564V94.569h11.5v3.464h-7.288v3.879h6.872V105.349z"/>
	</g>
</g>
</svg>
