<?xml version="1.0" encoding="iso-8859-1"?>
<!-- Generator: Adobe Illustrator 19.0.0, SVG Export Plug-In . SVG Version: 6.00 Build 0)  -->
<svg version="1.1" id="Capa_1" xmlns="http://www.w3.org/2000/svg" xmlns:xlink="http://www.w3.org/1999/xlink" x="0px" y="0px"
	 viewBox="0 0 512 512" style="enable-background:new 0 0 512 512;" xml:space="preserve">
<g>
	<g>
		<path d="M407.07,320.43c-1.86-1.86-4.44-2.93-7.07-2.93s-5.21,1.07-7.07,2.93c-1.86,1.86-2.93,4.44-2.93,7.07s1.07,5.21,2.93,7.07
			c1.86,1.86,4.44,2.93,7.07,2.93s5.21-1.07,7.07-2.93c1.86-1.86,2.93-4.44,2.93-7.07S408.93,322.29,407.07,320.43z"/>
	</g>
</g>
<g>
	<g>
		<path d="M408,54h-30.745c-0.115,0-0.228,0.013-0.342,0.017C373.408,41.339,361.778,32,348,32h-51.203
			C292.299,13.653,275.714,0,256,0s-36.299,13.653-40.797,32H164c-13.771,0-25.398,9.331-28.908,22H104c-27.57,0-50,22.43-50,50v358
			c0,27.57,22.43,50,50,50h304c27.57,0,50-22.43,50-50V104C458,76.43,435.57,54,408,54z M154,62c0-5.514,4.486-10,10-10h60
			c5.523,0,10-4.477,10-10c0-12.131,9.869-22,22-22s22,9.869,22,22c0,5.523,4.477,10,10,10h60c5.514,0,10,4.486,10,10v36H154V62z
			 M438,462c0,16.542-13.458,30-30,30H104c-16.542,0-30-13.458-30-30V104c0-16.542,13.458-30,30-30h30v14h-22.014
			c-5.523,0-10,4.477-10,10v354.772c0,5.523,4.477,10,10,10H400c5.523,0,10-4.477,10-10v-73.751c0-5.523-4.477-10-10-10
			s-10,4.477-10,10v63.751H121.986V108H134c0,5.523,4.477,10,10,10h224c5.523,0,10-4.477,10-10h12v167.386c0,5.523,4.477,10,10,10
			s10-4.477,10-10V98c0-5.523-4.477-10-10-10h-22V74h30c16.542,0,30,13.458,30,30V462z"/>
	</g>
</g>
<g>
	<g>
		<path d="M255.547,54h-0.138c-5.523,0-10,4.477-10,10s4.477,10,10,10h0.138c5.523,0,10-4.477,10-10S261.07,54,255.547,54z"/>
	</g>
</g>
<g>
	<g>
		<path d="M322.493,168.006c-26.106-26.105-65.287-34.521-99.821-21.438c-5.165,1.957-7.766,7.729-5.809,12.894
			c1.956,5.165,7.729,7.764,12.894,5.809c27.19-10.302,58.04-3.677,78.593,16.877c28.853,28.853,28.853,75.799,0,104.651
			c-13.977,13.978-32.56,21.675-52.326,21.675s-38.349-7.697-52.326-21.675c-20.412-20.412-27.1-51.092-17.039-78.162
			c1.924-5.177-0.713-10.933-5.89-12.857c-5.177-1.925-10.934,0.713-12.857,5.89c-12.778,34.379-4.282,73.346,21.644,99.271
			c17.754,17.755,41.36,27.533,66.468,27.533c25.108,0,48.714-9.778,66.469-27.532C359.143,264.292,359.143,204.657,322.493,168.006
			z"/>
	</g>
</g>
<g>
	<g>
		<path d="M203.651,167.956c-3.905-3.904-10.237-3.904-14.143,0c-3.905,3.905-3.905,10.237,0,14.143l0.055,0.053
			c1.946,1.946,4.487,2.915,7.031,2.915c2.561,0,5.125-0.983,7.084-2.942C207.583,178.22,207.556,171.861,203.651,167.956z"/>
	</g>
</g>
<g>
	<g>
		<path d="M311.865,197.1c-3.905-3.905-10.237-3.905-14.143,0l-44.596,44.596l-24.237-24.237c-3.905-3.906-10.237-3.904-14.142,0
			c-3.905,3.905-3.906,10.237,0,14.142l31.309,31.309c1.875,1.875,4.419,2.929,7.071,2.929s5.196-1.054,7.071-2.929l51.667-51.667
			C315.77,207.338,315.77,201.006,311.865,197.1z"/>
	</g>
</g>
<g>
	<g>
		<path d="M311.516,348.474H200.484c-5.523,0-10,4.477-10,10s4.477,10,10,10h111.032c5.523,0,10-4.477,10-10
			S317.039,348.474,311.516,348.474z"/>
	</g>
</g>
<g>
	<g>
		<path d="M283.773,388.474h-55.547c-5.523,0-10,4.477-10,10s4.477,10,10,10h55.547c5.523,0,10-4.477,10-10
			S289.296,388.474,283.773,388.474z"/>
	</g>
</g>
<g>
</g>
<g>
</g>
<g>
</g>
<g>
</g>
<g>
</g>
<g>
</g>
<g>
</g>
<g>
</g>
<g>
</g>
<g>
</g>
<g>
</g>
<g>
</g>
<g>
</g>
<g>
</g>
<g>
</g>
</svg>
