<svg height="512pt" viewBox="0 0 512 512" width="512pt" xmlns="http://www.w3.org/2000/svg"><path d="m497.417969 300.441406-35.238281 35.625c-3.914063 3.953125-9.066407 5.933594-14.222657 5.933594-5.082031 0-10.164062-1.925781-14.0625-5.78125-7.855469-7.769531-7.921875-20.433594-.152343-28.285156l22.6875-22.933594h-100.472657v23c0 26.074219-16.71875 48.316406-40 56.574219v127.425781c0 11.046875-8.953125 20-20 20-11.042969 0-20-8.953125-20-20v-144c0-11.046875 8.957031-20 20-20 11.03125 0 20-8.972656 20-20v-109c0-11.027344-8.96875-20-20-20h-80c-11.027343 0-20 8.972656-20 20v109c0 11.027344 8.972657 20 20 20 11.046875 0 20 8.953125 20 20v144c0 11.046875-8.953125 20-20 20-11.042969 0-20-8.953125-20-20v-127.425781c-23.277343-8.257813-40-30.5-40-56.574219v-23h-100.46875l22.691407 22.933594c7.765624 7.855468 7.695312 20.515625-.15625 28.285156-3.898438 3.855469-8.984376 5.78125-14.0625 5.78125-5.15625 0-10.308594-1.980469-14.222657-5.933594l-35.238281-35.625c-19.332031-19.542968-19.332031-51.339844 0-70.882812l35.238281-35.625c7.769531-7.851563 20.433594-7.921875 28.285157-.152344 7.851562 7.769531 7.921874 20.429688.152343 28.285156l-22.6875 22.933594h100.46875v-46c0-33.085938 26.917969-60 60-60h80c33.085938 0 60 26.914062 60 60v46h100.472657l-22.691407-22.933594c-7.765625-7.855468-7.699219-20.515625.15625-28.285156 7.851563-7.769531 20.515625-7.699219 28.28125.152344l35.242188 35.625c19.332031 19.542968 19.332031 51.339844 0 70.882812zm-301.460938-240.441406c0-33.085938 26.917969-60 60-60 33.085938 0 60 26.914062 60 60s-26.914062 60-60 60c-33.082031 0-60-26.914062-60-60zm40 0c0 11.027344 8.972657 20 20 20 11.03125 0 20-8.972656 20-20s-8.96875-20-20-20c-11.027343 0-20 8.972656-20 20zm0 0"/></svg>