<svg height="512pt" viewBox="0 0 512 512" width="512pt" xmlns="http://www.w3.org/2000/svg"><path d="m437.019531 74.980469c-48.351562-48.351563-112.640625-74.980469-181.019531-74.980469s-132.667969 26.628906-181.019531 74.980469c-43.066407 43.066406-68.878907 98.777343-74.011719 158.757812-.019531.183594-.035156.363281-.046875.542969-.601563 7.183594-.921875 14.425781-.921875 21.71875 0 68.378906 26.628906 132.667969 74.980469 181.019531 2.484375 2.484375 5.023437 4.898438 7.589843 7.265625.085938.085938.175782.171875.269532.253906 47.355468 43.578126 108.417968 67.460938 173.160156 67.460938 68.378906 0 132.667969-26.628906 181.019531-74.980469 48.351563-48.351562 74.980469-112.640625 74.980469-181.019531s-26.628906-132.667969-74.980469-181.019531zm38.984375 129.011719-70.199218 36.78125-49.046876-61.023438 14.085938-118.488281c16.195312 9.589843 31.300781 21.273437 44.960938 34.933593 30.144531 30.140626 50.710937 67.304688 60.199218 107.796876zm-446.003906 52.007812c0-.472656.015625-.941406.015625-1.410156l90.339844 25.027344 17.207031 69.578124-46.308594 61.496094c-39.550781-42.054687-61.253906-96.703125-61.253906-154.691406zm160.550781 216.421875 119.714844-81.859375 40.859375 5.59375.875.015625c.074219.003906.144531.035156.191406.089844l36.300782 42.871093c-38.296876 27.832032-84.234376 42.867188-132.492188 42.867188-22.5 0-44.492188-3.269531-65.449219-9.578125zm225.253907-56.617187c-1.398438 1.402343-2.820313 2.78125-4.25 4.140624l-36.46875-43.070312c-5.394532-6.367188-13.175782-10.21875-21.480469-10.660156l-42.566407-5.824219-.894531-.019531c-7.132812-.113282-13.210937 1.949218-17.335937 5.785156l-136.023438 93.011719c-15.40625-7.539063-29.988281-16.867188-43.480468-27.890625l49.867187-66.21875c3.890625-5.105469 5.539063-11.925782 4.519531-18.71875l-.101562-.695313-18.832032-76.140625c-1.511718-8.25-6.84375-14.734375-14.070312-17.035156l-.269531-.085938-102.179688-28.3125c6.78125-48.253906 28.890625-92.8125 63.957031-127.878906 42.683594-42.683594 99.4375-66.191406 159.804688-66.191406 30.105469 0 59.316406 5.851562 86.328125 17.007812l-15.28125 128.539063c-2.359375 7.402344.3125 15.792969 5 21.351563l55.78125 69.394531.386719.460937c4.09375 4.691406 9.464844 7.1875 14.789062 7.1875 2.714844 0 5.417969-.648437 7.925782-1.988281l70.121093-36.734375c.621094 6.867188.949219 13.800781.949219 20.78125 0 60.367188-23.507812 117.121094-66.195312 159.804688zm0 0"/><path d="m226.25 317.011719c-.089844-.480469-.21875-.960938-.359375-1.421875-.140625-.46875-.3125-.941406-.492187-1.390625-.1875-.449219-.398438-.890625-.628907-1.320313-.230469-.4375-.480469-.859375-.75-1.269531-.269531-.398437-.570312-.800781-.878906-1.179687-.3125-.378907-.640625-.75-.992187-1.089844-.339844-.351563-.707032-.679688-1.089844-1-.378906-.300782-.777344-.601563-1.1875-.871094-.402344-.269531-.832032-.519531-1.261719-.75s-.878906-.441406-1.328125-.628906c-.453125-.191406-.910156-.351563-1.382812-.492188-.46875-.148437-.949219-.269531-1.417969-.367187-.480469-.089844-.96875-.171875-1.460938-.210938-.980469-.101562-1.96875-.101562-2.949219 0-.492187.039063-.980468.121094-1.460937.210938-.46875.097656-.949219.21875-1.417969.367187-.472656.140625-.929687.300782-1.382812.492188-.449219.1875-.898438.398437-1.328125.628906-.429688.230469-.859375.480469-1.261719.75-.410156.269531-.808594.570312-1.1875.871094-.382812.320312-.75.648437-1.089844 1-.351562.339844-.679687.710937-.992187 1.089844-.308594.378906-.597657.78125-.878907 1.179687-.269531.410156-.519531.828125-.75 1.269531-.230468.429688-.441406.871094-.628906 1.320313-.179687.449219-.351562.921875-.492187 1.390625-.140625.460937-.269531.9375-.359375 1.421875-.101563.476562-.167969.96875-.21875 1.457031-.050782.492188-.082032.980469-.082032 1.472656 0 .488282.03125.988282.082032 1.480469.050781.476563.117187.96875.21875 1.449219.089844.476562.21875.957031.359375 1.429687.140625.460938.3125.929688.492187 1.378907.1875.449218.398438.898437.628906 1.332031.230469.429687.480469.847656.75 1.257812.28125.410157.570313.800781.878907 1.179688.3125.382812.640625.75.992187 1.101562.339844.339844.707032.679688 1.089844.988281.378906.3125.777344.601563 1.1875.871094.410156.269532.832031.53125 1.261719.75.429687.230469.878906.441406 1.328125.628906.453125.191407.910156.351563 1.382812.5.46875.140626.949219.261719 1.417969.359376.480469.09375.96875.171874 1.460937.222656.488282.039062.988282.070312 1.46875.070312.492188 0 .992188-.03125 1.480469-.070312.492188-.050782.980469-.128906 1.460938-.222656.46875-.097657.949219-.21875 1.417969-.359376.472656-.148437.929687-.308593 1.382812-.5.449219-.1875.898438-.398437 1.328125-.628906.429687-.21875.859375-.480468 1.261719-.75.410156-.269531.808594-.558594 1.1875-.871094.382812-.308593.75-.648437 1.089844-.988281.351562-.351562.679687-.71875.992187-1.101562.308594-.378907.609375-.769531.878906-1.179688.269531-.410156.519531-.828125.75-1.257812.230469-.433594.441407-.882813.628907-1.332031.179687-.449219.351562-.917969.492187-1.378907.140625-.472656.269531-.949219.359375-1.429687.101562-.480469.171875-.972656.21875-1.449219.050781-.492187.082031-.992187.082031-1.480469 0-.492187-.03125-.980468-.082031-1.472656-.046875-.488281-.117188-.980469-.21875-1.457031zm0 0"/><path d="m299.25 112.011719c-.101562-.480469-.21875-.960938-.359375-1.421875-.140625-.46875-.3125-.941406-.492187-1.390625-.1875-.449219-.398438-.890625-.628907-1.320313-.230469-.4375-.480469-.859375-.75-1.269531-.277343-.398437-.570312-.800781-.878906-1.179687-.3125-.378907-.640625-.75-.992187-1.089844-.339844-.351563-.707032-.679688-1.089844-1-.378906-.300782-.777344-.601563-1.1875-.871094-.398438-.269531-.832032-.519531-1.261719-.75s-.878906-.441406-1.328125-.628906c-.449219-.191406-.910156-.351563-1.382812-.492188-.46875-.148437-.949219-.269531-1.417969-.367187-.480469-.089844-.96875-.171875-1.460938-.210938-.980469-.101562-1.96875-.101562-2.949219 0-.488281.039063-.980468.121094-1.460937.210938-.46875.097656-.949219.21875-1.417969.367187-.472656.140625-.929687.300782-1.382812.492188-.449219.1875-.898438.398437-1.328125.628906-.429688.230469-.859375.480469-1.261719.75-.410156.269531-.808594.570312-1.1875.871094-.382812.320312-.75.648437-1.089844 1-.351562.339844-.679687.710937-.992187 1.089844-.308594.378906-.609375.78125-.878907 1.179687-.269531.410156-.519531.828125-.75 1.269531-.230468.429688-.4375.871094-.628906 1.320313-.179687.449219-.351562.921875-.492187 1.390625-.140625.460937-.257813.9375-.359375 1.421875-.097656.480469-.167969.96875-.21875 1.457031-.050782.480469-.070313.980469-.070313 1.472656 0 .488282.019531.988282.070313 1.480469.050781.476563.121094.96875.21875 1.449219.101562.476562.222656.957031.359375 1.429687.140625.460938.3125.929688.492187 1.378907.1875.449218.398438.898437.628906 1.332031.230469.429687.480469.847656.75 1.257812.269532.410157.570313.800781.878907 1.179688.3125.382812.640625.75.992187 1.101562.339844.339844.707032.679688 1.089844.988281.378906.3125.777344.601563 1.1875.871094.402344.269532.832031.53125 1.261719.75.429687.230469.878906.441406 1.328125.628906.453125.191407.910156.351563 1.382812.5.46875.140626.949219.261719 1.417969.359376.480469.09375.972656.171874 1.460937.222656.488282.039062.988282.070312 1.480469.070312.480469 0 .980469-.03125 1.46875-.070312.492188-.050782.980469-.128906 1.460938-.222656.46875-.097657.949219-.21875 1.417969-.359376.472656-.148437.933593-.308593 1.382812-.5.449219-.1875.898438-.398437 1.328125-.628906.429687-.21875.859375-.480468 1.261719-.75.410156-.269531.808594-.558594 1.1875-.871094.382812-.308593.75-.648437 1.089844-.988281.351562-.351562.683593-.71875.992187-1.101562.308594-.378907.601563-.769531.878906-1.179688.269531-.410156.519531-.828125.75-1.257812.230469-.433594.441407-.882813.628907-1.332031.183593-.449219.351562-.917969.492187-1.378907.140625-.472656.257813-.949219.359375-1.429687.101562-.480469.171875-.972656.21875-1.449219.050781-.492187.070312-.992187.070312-1.480469 0-.492187-.019531-.992187-.070312-1.472656-.046875-.488281-.117188-.980469-.21875-1.457031zm0 0"/><path d="m229.839844 87.871094c.101562.476562.21875.957031.359375 1.429687.140625.460938.3125.929688.5 1.378907.179687.449218.390625.898437.621093 1.332031.230469.429687.480469.847656.75 1.257812.269532.410157.570313.800781.878907 1.179688.3125.382812.640625.75.992187 1.101562.339844.339844.707032.679688 1.089844.988281.378906.3125.777344.601563 1.1875.871094.402344.269532.832031.53125 1.261719.75.429687.230469.878906.449219 1.328125.628906.453125.191407.910156.359376 1.382812.5.46875.140626.949219.261719 1.417969.359376.492187.09375.96875.171874 1.460937.222656.488282.050781.988282.070312 1.480469.070312.488281 0 .980469-.019531 1.46875-.070312.492188-.050782.980469-.128906 1.460938-.222656.46875-.097657.949219-.21875 1.417969-.359376.472656-.140624.929687-.308593 1.382812-.5.449219-.179687.898438-.398437 1.328125-.628906.429687-.21875.859375-.480468 1.261719-.75.410156-.269531.808594-.558594 1.1875-.871094.382812-.308593.75-.648437 1.089844-.988281.351562-.351562.679687-.71875.992187-1.101562.308594-.378907.609375-.769531.878906-1.179688.269531-.410156.519531-.828125.75-1.257812.230469-.433594.441407-.882813.628907-1.332031.183593-.449219.351562-.917969.492187-1.378907.148437-.472656.269531-.949219.359375-1.429687.101562-.480469.171875-.972656.21875-1.449219.050781-.492187.082031-.992187.082031-1.480469 0-3.949218-1.609375-7.8125-4.402343-10.601562-.339844-.351563-.707032-.679688-1.089844-1-.378906-.300782-.777344-.601563-1.1875-.871094-.402344-.269531-.832032-.519531-1.261719-.75-.429687-.226562-.878906-.4375-1.328125-.628906-.453125-.191406-.910156-.351563-1.382812-.488282-.46875-.152343-.949219-.273437-1.417969-.371093-.480469-.089844-.96875-.171875-1.460938-.210938-.980469-.097656-1.96875-.097656-2.949219 0-.492187.039063-.96875.121094-1.460937.210938-.46875.101562-.949219.21875-1.417969.371093-.472656.140626-.929687.296876-1.382812.488282-.449219.1875-.898438.398437-1.328125.628906-.429688.230469-.859375.480469-1.261719.75-.410156.273438-.808594.570312-1.1875.871094-.382812.320312-.75.648437-1.089844 1-.351562.339844-.679687.710937-.992187 1.089844-.308594.378906-.609375.78125-.878907 1.179687-.269531.410156-.519531.839844-.75 1.273437-.230468.429688-.441406.867188-.621093 1.316407-.1875.460937-.359375.921875-.5 1.390625-.140625.460937-.257813.941406-.359375 1.421875-.101563.480469-.167969.96875-.21875 1.460937-.050782.488282-.070313.976563-.070313 1.46875 0 .488282.019531.988282.070313 1.480469.050781.476563.117187.96875.21875 1.449219zm0 0"/><path d="m238.722656 142.585938-61.195312-38.757813c-3.699219-2.347656-8.253906-3.0625-12.496094-1.96875-3.472656.898437-6.542969 2.964844-8.695312 5.792969l-59.226563 71.453125-.691406 1.265625c-2.363281 4.316406-2.582031 9.582031-.585938 14.085937 1.824219 4.113281 5.363281 7.285157 9.617188 8.679688l140.460937 49.128906.726563.25.746093.179687c1.230469.292969 2.464844.4375 3.6875.4375 6.507813 0 12.550782-4.023437 14.910157-10.355468l1.648437-4.410156-21.625-84.140626c-.542968-4.671874-3.128906-9.023437-7.28125-11.640624zm-104.546875 38.8125 37.789063-45.585938 45.785156 29 12.9375 50.34375zm0 0"/></svg>