<svg height="512pt" viewBox="0 0 512 512" width="512pt" xmlns="http://www.w3.org/2000/svg"><path d="m492 352c11.046875 0 20-8.953125 20-20v-252c0-44.113281-35.886719-80-80-80h-116c-23.878906 0-45.328125 10.527344-60 27.167969-14.671875-16.640625-36.121094-27.167969-60-27.167969h-116c-44.113281 0-80 35.886719-80 80v352c0 44.113281 35.886719 80 80 80h116c23.878906 0 45.328125-10.527344 60-27.167969 14.671875 16.640625 36.121094 27.167969 60 27.167969h116c44.113281 0 80-35.886719 80-80 0-11.046875-8.953125-20-20-20s-20 8.953125-20 20c0 22.054688-17.945312 40-40 40h-116c-22.054688 0-40-17.945312-40-40v-156h196v56c0 11.046875 8.953125 20 20 20zm-412-312h116c22.054688 0 40 17.945312 40 40v156h-196v-156c0-22.054688 17.945312-40 40-40zm156 392c0 22.054688-17.945312 40-40 40h-116c-22.054688 0-40-17.945312-40-40v-156h196zm40-196v-156c0-22.054688 17.945312-40 40-40h116c22.054688 0 40 17.945312 40 40v156zm-206-136c0-11.046875 8.953125-20 20-20h91c11.046875 0 20 8.953125 20 20s-8.953125 20-20 20h-91c-11.046875 0-20-8.953125-20-20zm0 70c0-11.046875 8.953125-20 20-20h20c11.046875 0 20 8.953125 20 20s-8.953125 20-20 20h-20c-11.046875 0-20-8.953125-20-20zm372-70c0 11.046875-8.953125 20-20 20h-96c-11.046875 0-20-8.953125-20-20s8.953125-20 20-20h96c11.046875 0 20 8.953125 20 20zm-76 70c0 11.046875-8.953125 20-20 20h-20c-11.046875 0-20-8.953125-20-20s8.953125-20 20-20h20c11.046875 0 20 8.953125 20 20zm-296 166c0-11.046875 8.953125-20 20-20h91c11.046875 0 20 8.953125 20 20s-8.953125 20-20 20h-91c-11.046875 0-20-8.953125-20-20zm0 70c0-11.046875 8.953125-20 20-20h20c11.046875 0 20 8.953125 20 20s-8.953125 20-20 20h-20c-11.046875 0-20-8.953125-20-20zm352-50h-96c-11.046875 0-20-8.953125-20-20s8.953125-20 20-20h96c11.046875 0 20 8.953125 20 20s-8.953125 20-20 20zm-76 30c11.046875 0 20 8.953125 20 20s-8.953125 20-20 20h-20c-11.046875 0-20-8.953125-20-20s8.953125-20 20-20zm0 0"/></svg>