<svg height="512pt" viewBox="0 0 512 512" width="512pt" xmlns="http://www.w3.org/2000/svg"><path d="m235.980469 366v-11.042969c-12.566407-.453125-24.308594-5.425781-33.238281-14.140625-9.53125-9.304687-14.78125-21.808594-14.78125-35.203125 0-11.046875 8.953124-20 20-20 11.046874 0 20 8.953125 20 20 0 5.351563 4.25 9.386719 9.890624 9.386719h29.785157c9.328125 0 16.363281-6.554688 16.363281-15.25v-9.5c0-8.984375-7.339844-16.296875-16.363281-16.296875h-18.328125c-31.019532 0-56.253906-25.363281-56.253906-56.542969v-2.703125c0-15.113281 5.898437-29.210937 16.605468-39.691406 7.355469-7.195313 16.421875-12.128906 26.320313-14.464844v-13.550781c0-11.046875 8.953125-20 20-20s20 8.953125 20 20v12.859375c23.320312 4.285156 41.019531 24.289063 41.019531 48.257813 0 11.042968-8.953125 20-20 20s-20-8.957032-20-20c0-5.707032-5.269531-9.117188-10.359375-9.117188h-17.332031c-9.265625 0-16.253906 6.753906-16.253906 15.707031v2.703125c0 9.121094 7.292968 16.542969 16.253906 16.542969h18.328125c31.078125 0 56.363281 25.253906 56.363281 56.296875v9.5c0 28.195312-20.507812 50.824219-48.019531 54.667969v11.582031c0 11.046875-8.953125 20-20 20s-20-8.953125-20-20zm256.019531-130h-19.921875c-4.574219-50.144531-26.296875-96.6875-62.34375-132.734375-36.285156-36.285156-83.207031-58.054687-133.734375-62.429687v-20.835938c0-11.046875-8.953125-20-20-20s-20 8.953125-20 20v21.007812c-49.765625 4.769532-95.929688 26.453126-131.734375 62.257813-36.046875 36.046875-57.769531 82.589844-62.34375 132.734375h-21.921875c-11.046875 0-20 8.953125-20 20s8.953125 20 20 20h21.921875c4.574219 50.144531 26.296875 96.691406 62.34375 132.734375 35.804687 35.804687 81.96875 57.488281 131.734375 62.257813v21.007812c0 11.046875 8.953125 20 20 20s20-8.953125 20-20v-20.855469c29.667969-2.621093 58.617188-11.328125 84.667969-25.605469 9.6875-5.308593 13.234375-17.464843 7.925781-27.148437-5.308594-9.6875-17.460938-13.234375-27.152344-7.929687-25.710937 14.089843-54.910156 21.539062-84.441406 21.539062-97.046875 0-176-78.953125-176-176s78.953125-176 176-176 176 78.953125 176 176c0 31.441406-8.589844 62.480469-24.847656 89.761719-5.652344 9.492187-2.542969 21.765625 6.945312 27.421875 9.492188 5.652344 21.765625 2.542968 27.417969-6.945313 16.492187-27.675781 26.546875-58.535156 29.535156-90.238281h19.949219c11.046875 0 20-8.953125 20-20s-8.953125-20-20-20zm0 0"/></svg>