<?xml version="1.0" encoding="iso-8859-1"?>
<!-- Generator: Adobe Illustrator 19.0.0, SVG Export Plug-In . SVG Version: 6.00 Build 0)  -->
<svg version="1.1" id="Capa_1" xmlns="http://www.w3.org/2000/svg" xmlns:xlink="http://www.w3.org/1999/xlink" x="0px" y="0px"
	 viewBox="0 0 512 512" style="enable-background:new 0 0 512 512;" xml:space="preserve">
<g>
	<g>
		<path d="M385.813,73.028C357.277,27.981,307.528,0,255.978,0S154.679,27.981,126.135,73.037
			c-29.833,47.087-31.667,103.936-4.821,160.708c13.722,23.731,49.331,90.872,49.331,116.122c0,36.284,13.397,59.733,34.133,59.733
			h102.4c20.727,0,34.133-23.45,34.133-59.733c0-25.233,35.601-92.382,49.655-116.753
			C417.48,176.973,415.654,120.115,385.813,73.028z M375.863,225.203c-5.282,9.139-51.618,90.3-51.618,124.664
			c0,23.927-7.492,42.667-17.067,42.667h-102.4c-9.574,0-17.067-18.739-17.067-42.667c0-34.364-46.345-115.524-51.294-124.049
			c-23.927-50.662-22.46-101.683,4.139-143.659c25.438-40.149,69.666-65.092,115.422-65.092c45.747,0,89.976,24.943,115.422,65.101
			C397.998,124.143,399.466,175.164,375.863,225.203z"/>
	</g>
</g>
<g>
	<g>
		<path d="M307.246,426.667h-102.4c-14.114,0-25.6,11.486-25.6,25.6c0,14.114,11.486,25.6,25.6,25.6h102.4
			c14.114,0,25.6-11.486,25.6-25.6C332.846,438.153,321.36,426.667,307.246,426.667z M307.246,460.8h-102.4
			c-4.702,0-8.533-3.831-8.533-8.533c0-4.702,3.831-8.533,8.533-8.533h102.4c4.702,0,8.533,3.831,8.533,8.533
			C315.78,456.969,311.948,460.8,307.246,460.8z"/>
	</g>
</g>
<g>
	<g>
		<path d="M307.246,392.533h-102.4c-14.114,0-25.6,11.486-25.6,25.6s11.486,25.6,25.6,25.6h102.4c14.114,0,25.6-11.486,25.6-25.6
			S321.36,392.533,307.246,392.533z M307.246,426.667h-102.4c-4.702,0-8.533-3.831-8.533-8.533s3.831-8.533,8.533-8.533h102.4
			c4.702,0,8.533,3.831,8.533,8.533S311.948,426.667,307.246,426.667z"/>
	</g>
</g>
<g>
	<g>
		<path d="M307.246,460.8h-102.4c-4.71,0-8.533,3.823-8.533,8.533v23.211c0,10.726,8.73,19.456,19.456,19.456h80.555
			c10.726,0,19.456-8.73,19.456-19.456v-23.211C315.78,464.623,311.957,460.8,307.246,460.8z M298.713,492.544
			c0,1.323-1.067,2.389-2.389,2.389h-80.555c-1.323,0-2.389-1.075-2.389-2.389v-14.677h85.333V492.544z"/>
	</g>
</g>
<g>
	<g>
		<path d="M256.046,42.667c-61.167,0-110.933,49.766-110.933,110.933s49.766,110.933,110.933,110.933S366.98,214.767,366.98,153.6
			S317.213,42.667,256.046,42.667z M256.046,247.467c-51.755,0-93.867-42.112-93.867-93.867c0-51.755,42.112-93.867,93.867-93.867
			c51.755,0,93.867,42.112,93.867,93.867C349.913,205.355,307.801,247.467,256.046,247.467z"/>
	</g>
</g>
<g>
	<g>
		<path d="M199.846,153.6l19.567-19.567c3.337-3.337,3.337-8.73,0-12.066c-3.337-3.337-8.73-3.337-12.066,0l-25.6,25.6
			c-3.337,3.337-3.337,8.73,0,12.066l25.6,25.6c1.664,1.664,3.849,2.5,6.033,2.5c2.185,0,4.369-0.836,6.033-2.5
			c3.337-3.337,3.337-8.73,0-12.066L199.846,153.6z"/>
	</g>
</g>
<g>
	<g>
		<path d="M330.346,147.567l-25.6-25.6c-3.336-3.336-8.73-3.337-12.066,0s-3.337,8.73,0,12.066l19.567,19.567l-19.567,19.567
			c-3.337,3.337-3.337,8.73,0,12.066c1.664,1.664,3.849,2.5,6.033,2.5c2.185,0,4.369-0.836,6.033-2.5l25.6-25.6
			C333.683,156.297,333.683,150.904,330.346,147.567z"/>
	</g>
</g>
<g>
	<g>
		<path d="M275.818,94.302c-4.489-1.51-9.31,0.922-10.795,5.393l-34.133,102.4c-1.493,4.471,0.922,9.301,5.393,10.795
			c0.896,0.299,1.809,0.444,2.697,0.444c3.575,0,6.903-2.261,8.098-5.837l34.133-102.4
			C282.704,100.625,280.289,95.795,275.818,94.302z"/>
	</g>
</g>
<g>
	<g>
		<path d="M230.446,281.6c-4.71,0-8.533,3.823-8.533,8.533v110.933c0,4.71,3.823,8.533,8.533,8.533c4.71,0,8.533-3.823,8.533-8.533
			V290.133C238.98,285.423,235.157,281.6,230.446,281.6z"/>
	</g>
</g>
<g>
	<g>
		<path d="M281.646,281.6c-4.71,0-8.533,3.823-8.533,8.533v110.933c0,4.71,3.823,8.533,8.533,8.533c4.71,0,8.533-3.823,8.533-8.533
			V290.133C290.18,285.423,286.357,281.6,281.646,281.6z"/>
	</g>
</g>
<g>
	<g>
		<path d="M298.713,349.867H213.38c-4.71,0-8.533,3.823-8.533,8.533s3.823,8.533,8.533,8.533h85.333c4.71,0,8.533-3.823,8.533-8.533
			S303.423,349.867,298.713,349.867z"/>
	</g>
</g>
</svg>
