<svg id="Zeppelin" enable-background="new 0 0 300 300" height="512" viewBox="0 0 300 300" width="512" xmlns="http://www.w3.org/2000/svg"><g><path d="m248.492 95.288c-5.929-26.245-29.803-45.288-56.778-45.288h-41.739c-24.999 0-47.536 11.13-64.747 23.328h-28.978c-3.452 0-6.25 2.795-6.25 6.25v57.513c0 3.455 2.798 6.25 6.25 6.25h29.015c13.521 9.568 30.328 18.459 49.034 21.834l9.331 34.825h-1.071c-3.452 0-6.25 2.795-6.25 6.25v37.5c0 3.455 2.798 6.25 6.25 6.25h56.25c3.452 0 6.25-2.795 6.25-6.25v-37.5c0-3.455-2.798-6.25-6.25-6.25h-1.071l9.53-35.567c20.137-5.684 36.435-22.047 41.219-43.021 1.004-4.242 1.514-8.643 1.514-13.074-.001-4.426-.508-8.814-1.509-13.05zm-56.778-32.788c20.064 0 37.92 13.415 43.71 32.332-12.388-13.489-31.011-21.504-51.212-21.504h-47.919c-13.506 0-26.387 2.575-38.241 6.506 14.682-9.471 32.66-17.334 51.922-17.334zm-124.234 45.837c17.667-11.218 42.096-22.51 68.814-22.51h47.919c19.11 0 36.401 8.539 46.051 22.51-9.653 13.965-26.944 22.504-46.051 22.504h-47.919c-26.724 0-51.15-11.291-68.814-22.504zm125.078 129.163h-43.75v-25h43.75zm-7.757-37.5h-28.235l-8.963-33.451c.791.022 1.576.071 2.373.071h41.739c.69 0 1.369-.066 2.055-.09zm6.913-45.88h-41.739c-19.143 0-37.048-7.796-51.707-17.21 11.794 3.889 24.601 6.431 38.026 6.431h47.919c20.191 0 38.809-8.006 51.196-21.484-5.845 18.878-23.691 32.263-43.695 32.263z"/></g></svg>