<?xml version="1.0" encoding="iso-8859-1"?>
<!-- Generator: Adobe Illustrator 19.0.0, SVG Export Plug-In . SVG Version: 6.00 Build 0)  -->
<svg version="1.1" id="Capa_1" xmlns="http://www.w3.org/2000/svg" xmlns:xlink="http://www.w3.org/1999/xlink" x="0px" y="0px"
	 viewBox="0 0 512 512" style="enable-background:new 0 0 512 512;" xml:space="preserve">
<g>
	<g>
		<path fill="#fde5a8" d="M512,187.733c0-47.053-38.281-85.333-85.333-85.333c-9.958,0-19.627,1.69-28.851,5.035C384.333,45.457,328.9,0,264.533,0
			c-59.588,0-111.249,37.939-129.536,93.645c-9.95-5.41-21.188-8.311-32.597-8.311c-37.641,0-68.267,30.626-68.267,68.267
			c0,15.539,5.265,30.404,14.754,42.368C19.55,209.886,0,239.906,0,273.067C0,320.12,38.281,358.4,85.333,358.4h59.733
			c4.71,0,8.533-3.823,8.533-8.533s-3.823-8.533-8.533-8.533H85.333c-37.641,0-68.267-30.626-68.267-68.267
			c0-30.199,20.275-57.148,49.306-65.536c3.029-0.87,5.325-3.345,5.982-6.426c0.657-3.081-0.444-6.272-2.859-8.303
			C57.865,183.031,51.2,168.738,51.2,153.6c0-28.237,22.972-51.2,51.2-51.2c11.878,0,23.023,3.959,32.247,11.46
			c2.278,1.843,5.35,2.406,8.141,1.451c2.79-0.956,4.881-3.268,5.555-6.127c12.723-54.238,60.501-92.117,116.19-92.117
			c59.614,0,110.464,44.57,118.298,103.663c0.367,2.756,2.057,5.171,4.523,6.451c2.466,1.28,5.41,1.289,7.876,0
			c9.83-5.12,20.403-7.714,31.437-7.714c37.641,0,68.267,30.626,68.267,68.267c0,23.893-12.245,45.653-32.742,58.206
			c-3.226,1.971-4.762,5.828-3.789,9.481c1.587,5.948,2.398,11.887,2.398,17.647c0,37.641-30.626,68.267-68.267,68.267h-25.6
			c-4.71,0-8.533,3.823-8.533,8.533s3.823,8.533,8.533,8.533h25.6c47.053,0,85.333-38.281,85.333-85.333
			c0-5.265-0.529-10.633-1.579-16.008C498.765,241.024,512,215.543,512,187.733z"/>
	</g>
</g>
<g>
	<g>
		<path fill="#fde5a8" d="M301.628,43.196l-1.57-0.58c-10.786-4.002-23.074-8.653-35.558-8.482c-4.71,0.017-8.516,3.857-8.499,8.567
			c0.017,4.702,3.831,8.499,8.533,8.499c0.06,0.009,0.111,0,0.179,0c9.404,0,19.576,3.772,29.406,7.415l1.587,0.589
			c0.981,0.358,1.98,0.529,2.961,0.529c3.465,0,6.733-2.133,8.004-5.572C308.309,49.741,306.048,44.826,301.628,43.196z"/>
	</g>
</g>
<g>
	<g>
		<path fill="#fde5a8" d="M238.396,48.239c-1.638-4.412-6.545-6.656-10.974-5.026c-18.014,6.699-31.718,15.898-41.899,28.134
			c-3.012,3.618-2.526,9.003,1.101,12.015c1.596,1.323,3.524,1.971,5.453,1.971c2.449,0,4.881-1.05,6.562-3.063
			c8.218-9.89,19.584-17.425,34.731-23.057C237.79,57.566,240.043,52.659,238.396,48.239z"/>
	</g>
</g>
<g>
	<g>
		<path fill="#fde5a8" d="M426.667,102.4c-32.29,0-61.38,18.159-75.913,47.411c-2.091,4.215-0.375,9.335,3.849,11.435
			c1.22,0.606,2.517,0.888,3.789,0.888c3.14,0,6.161-1.741,7.654-4.736c11.622-23.398,34.85-37.931,60.621-37.931
			c4.71,0,8.533-3.823,8.533-8.533S431.377,102.4,426.667,102.4z"/>
	</g>
</g>
<g>
	<g>
		<path fill="#fde5a8" d="M164.096,124.339c-11.255-23.697-35.473-39.006-61.696-39.006c-4.71,0-8.533,3.823-8.533,8.533
			c0,4.71,3.823,8.533,8.533,8.533c19.669,0,37.837,11.486,46.276,29.261c1.459,3.081,4.523,4.872,7.714,4.872
			c1.229,0,2.475-0.265,3.661-0.819C164.309,133.692,166.118,128.597,164.096,124.339z"/>
	</g>
</g>
<g>
	<g>
		<path fill="#fde5a8" d="M256,443.733c-18.825,0-34.133,15.309-34.133,34.133S237.175,512,256,512c18.825,0,34.133-15.309,34.133-34.133
			S274.825,443.733,256,443.733z M256,494.933c-9.412,0-17.067-7.654-17.067-17.067S246.588,460.8,256,460.8
			c9.412,0,17.067,7.654,17.067,17.067S265.412,494.933,256,494.933z"/>
	</g>
</g>
<g>
	<g>
		<path fill="#fde5a8" d="M230.4,469.333H8.533c-4.71,0-8.533,3.823-8.533,8.533s3.823,8.533,8.533,8.533H230.4c4.71,0,8.533-3.823,8.533-8.533
			S235.11,469.333,230.4,469.333z"/>
	</g>
</g>
<g>
	<g>
		<path fill="#fde5a8" d="M503.467,469.333H281.6c-4.71,0-8.533,3.823-8.533,8.533s3.823,8.533,8.533,8.533h221.867c4.71,0,8.533-3.823,8.533-8.533
			S508.177,469.333,503.467,469.333z"/>
	</g>
</g>
<g>
	<g>
		<path fill="#fde5a8" d="M256,418.133c-4.71,0-8.533,3.823-8.533,8.533v25.6c0,4.71,3.823,8.533,8.533,8.533s8.533-3.823,8.533-8.533v-25.6
			C264.533,421.956,260.71,418.133,256,418.133z"/>
	</g>
</g>
<g>
	<g>
		<path fill="#fde5a8" d="M359.458,274.611l-3.797-0.478c-8.687-1.092-16.171-6.75-19.055-14.404c-0.58-1.562-1.212-3.098-1.894-4.617
			c-3.516-7.919-2.176-17.391,3.507-24.695l1.911-2.458c2.645-3.396,2.347-8.235-0.7-11.273l-9.984-9.984
			c-3.038-3.038-7.876-3.354-11.273-0.7l-2.458,1.911c-7.305,5.683-16.776,7.023-24.695,3.507c-1.528-0.683-3.063-1.314-4.599-1.886
			c-7.791-2.935-13.312-10.24-14.413-19.055l-0.478-3.797c-0.529-4.267-4.164-7.475-8.465-7.475h-14.123
			c-4.301,0-7.936,3.209-8.465,7.475l-0.469,3.789c-1.092,8.687-6.75,16.171-14.404,19.055c-1.562,0.589-3.098,1.212-4.617,1.894
			c-7.919,3.524-17.391,2.185-24.704-3.507l-2.466-1.911c-3.396-2.645-8.226-2.338-11.264,0.708l-9.984,9.984
			c-3.046,3.046-3.345,7.876-0.7,11.273l1.911,2.458c5.683,7.313,7.031,16.776,3.507,24.695c-0.674,1.519-1.297,3.046-1.886,4.599
			c-2.893,7.663-10.368,13.329-19.063,14.413l-3.797,0.478c-4.275,0.529-7.475,4.164-7.475,8.465v14.123
			c0,4.301,3.2,7.927,7.467,8.474l3.797,0.478c8.695,1.092,16.171,6.75,19.063,14.421c0.589,1.544,1.212,3.081,1.886,4.591
			c3.524,7.927,2.185,17.391-3.499,24.695l-1.911,2.458c-2.645,3.396-2.347,8.226,0.7,11.273l9.984,9.984
			c3.046,3.055,7.885,3.362,11.273,0.708l2.466-1.92c7.313-5.683,16.777-7.031,24.695-3.507c1.527,0.683,3.063,1.314,4.599,1.886
			c7.791,2.935,13.321,10.24,14.421,19.055l0.469,3.797c0.529,4.267,4.164,7.475,8.465,7.475h14.123
			c4.301,0,7.936-3.209,8.457-7.484l0.478-3.789c1.101-8.823,6.63-16.128,14.404-19.055c1.562-0.58,3.098-1.212,4.617-1.894
			c7.927-3.516,17.391-2.185,24.695,3.507l2.458,1.911c3.396,2.654,8.235,2.338,11.273-0.7l9.984-9.984
			c3.046-3.038,3.345-7.876,0.7-11.273l-1.911-2.458c-5.683-7.313-7.031-16.777-3.507-24.695c0.683-1.527,1.314-3.063,1.886-4.599
			c2.893-7.663,10.377-13.329,19.064-14.413l3.797-0.478c4.275-0.529,7.475-4.164,7.475-8.465v-14.123
			C366.933,278.776,363.725,275.14,359.458,274.611z M320.631,314.556c-0.461,1.229-0.964,2.449-1.502,3.661
			c-5.359,12.049-4.326,26.018,2.534,37.572c-11.554-6.852-25.515-7.893-37.581-2.534c-1.212,0.538-2.432,1.041-3.678,1.51
			C268.22,359.364,259.2,369.809,256,382.669c-3.2-12.868-12.22-23.313-24.422-27.913c-1.229-0.461-2.449-0.964-3.661-1.502
			c-5.154-2.287-10.65-3.413-16.162-3.413c-7.39,0-14.797,2.022-21.402,5.948c6.861-11.563,7.902-25.515,2.534-37.581
			c-0.546-1.22-1.05-2.441-1.51-3.678c-4.591-12.194-15.036-21.205-27.904-24.405c12.868-3.191,23.313-12.211,27.904-24.397
			c0.461-1.237,0.964-2.466,1.51-3.686c5.367-12.058,4.326-26.018-2.534-37.572c11.554,6.869,25.523,7.902,37.589,2.534
			c1.203-0.538,2.424-1.041,3.669-1.51c12.186-4.599,21.197-15.044,24.397-27.904c3.2,12.868,12.22,23.313,24.422,27.913
			c1.229,0.461,2.449,0.964,3.661,1.502c12.049,5.367,26.018,4.326,37.572-2.534c-6.861,11.563-7.893,25.523-2.534,37.581
			c0.538,1.212,1.041,2.432,1.51,3.678c4.591,12.194,15.044,21.205,27.904,24.405C335.684,293.333,325.231,302.345,320.631,314.556z
			"/>
	</g>
</g>
<g>
	<g>
		<path fill="#fde5a8" d="M256,256c-18.825,0-34.133,15.309-34.133,34.133c0,18.825,15.309,34.133,34.133,34.133
			c18.825,0,34.133-15.309,34.133-34.133S274.825,256,256,256z M256,307.2c-9.412,0-17.067-7.654-17.067-17.067
			c0-9.412,7.654-17.067,17.067-17.067c9.412,0,17.067,7.654,17.067,17.067C273.067,299.546,265.412,307.2,256,307.2z"/>
	</g>
</g>
</svg>
