<?xml version="1.0" ?><!DOCTYPE svg  PUBLIC '-//W3C//DTD SVG 1.1//EN'  'http://www.w3.org/Graphics/SVG/1.1/DTD/svg11.dtd'><svg enable-background="new 0 0 91 91" height="91px" id="Layer_1" version="1.1" viewBox="0 0 91 91" width="91px" xml:space="preserve" xmlns="http://www.w3.org/2000/svg" xmlns:xlink="http://www.w3.org/1999/xlink"><g><path d="M69.878,44.413c0-12.869-10.471-23.34-23.34-23.34c-12.87,0-23.341,10.471-23.341,23.34c0,9.068,5.209,16.926,12.78,20.787   l-5.462,5.465l2.404,2.404l6.45-6.453c2.261,0.732,4.667,1.137,7.168,1.137s4.907-0.404,7.167-1.137l6.451,6.453l2.404-2.404   L57.098,65.2C64.67,61.339,69.878,53.481,69.878,44.413z M46.538,64.353c-10.995,0-19.94-8.943-19.94-19.939   c0-10.994,8.945-19.939,19.94-19.939s19.94,8.945,19.94,19.939C66.479,55.409,57.533,64.353,46.538,64.353z"/><polygon points="48.308,28.122 44.908,28.122 44.908,46.114 55.482,46.114 55.482,42.714 48.308,42.714  "/><rect height="3.611" width="3.399" x="44.908" y="57.067"/><rect height="3.4" width="3.561" x="30.229" y="42.714"/><rect height="3.4" width="3.562" x="59.286" y="42.714"/><path d="M20.934,25.397v3.113h3.4v-3.113c0-1.719,1.398-3.117,3.119-3.117h3.111v-3.4h-3.111   C23.857,18.88,20.934,21.804,20.934,25.397z"/><path d="M72.141,25.397c0-3.594-2.924-6.518-6.52-6.518H62.51v3.4h3.111c1.721,0,3.119,1.398,3.119,3.117v3.113h3.4V25.397z"/></g></svg>