<?xml version="1.0" encoding="utf-8"?>
<!-- Generator: Adobe Illustrator 16.0.0, SVG Export Plug-In . SVG Version: 6.00 Build 0)  -->
<!DOCTYPE svg PUBLIC "-//W3C//DTD SVG 1.1//EN" "http://www.w3.org/Graphics/SVG/1.1/DTD/svg11.dtd">
<svg version="1.1" id="FLAG" xmlns="http://www.w3.org/2000/svg" xmlns:xlink="http://www.w3.org/1999/xlink" x="0px" y="0px"
	 width="1800px" height="1800px" viewBox="0 0 1800 1800" enable-background="new 0 0 1800 1800" xml:space="preserve">
<g>
	<path fill="#FF0000" d="M1646.857,537.94L735.386,271.5v-66.372c41.896-13.364,72.331-52.65,72.331-98.919
		c0-57.245-46.572-103.816-103.813-103.816S600.092,48.964,600.092,106.208c0,46.269,30.437,85.555,72.332,98.919v1359.694
		c0,17.389,14.094,31.482,31.481,31.482c17.388,0,31.481-14.094,31.481-31.482V864.814l911.472-266.441
		c13.422-3.922,22.648-16.232,22.648-30.216C1669.506,554.173,1660.279,541.862,1646.857,537.94z M703.904,65.354
		c22.526,0,40.85,18.328,40.85,40.854s-18.323,40.849-40.85,40.849s-40.849-18.323-40.849-40.849S681.378,65.354,703.904,65.354z"/>
</g>
</svg>
