<?xml version="1.0" encoding="iso-8859-1"?>
<!-- Generator: Adobe Illustrator 19.0.0, SVG Export Plug-In . SVG Version: 6.00 Build 0)  -->
<svg version="1.1" id="Capa_1" xmlns="http://www.w3.org/2000/svg" xmlns:xlink="http://www.w3.org/1999/xlink" x="0px" y="0px"
	 viewBox="0 0 512 512" style="enable-background:new 0 0 512 512;" xml:space="preserve">
<path style="fill:#FAC800;" d="M366,177.283v-48.508C350.76,133.754,329.967,139,310,139c-38,0-76-39-109-39
	c-19.871,0-41.18,8.336-55,14.972v62.402c0,13.992,7.495,26.911,19.642,33.855l67.004,48.309L256,295l22.646-35.461l67.593-48.332
	C358.453,204.28,366,191.324,366,177.283z"/>
<g>
	<rect x="86" y="10" style="fill:#9B4B14;" width="340" height="40"/>
	<rect x="86" y="462" style="fill:#9B4B14;" width="340" height="40"/>
</g>
<g>
	<path style="fill:#E6E6E6;" d="M344.051,301.331l-65.405-41.792L256,295l-23.354-35.461l-64.809,41.76
		C154.472,307.848,146,321.434,146,336.318V462h220V336.405C366,321.476,357.477,307.857,344.051,301.331z"/>
	<path style="fill:#E6E6E6;" d="M310,139c19.967,0,40.76-5.246,56-10.225V50H146v64.972C159.82,108.336,181.129,100,201,100
		C234,100,272,139,310,139z"/>
</g>
<polygon style="fill:#FAC800;" points="256,405 182.699,462 329.301,462 "/>
<path d="M426,60c5.523,0,10-4.478,10-10V10c0-5.522-4.477-10-10-10H86c-5.523,0-10,4.478-10,10v40c0,5.522,4.477,10,10,10h10.5v392
	H86c-5.523,0-10,4.478-10,10v40c0,5.522,4.477,10,10,10h340c5.523,0,10-4.478,10-10v-40c0-5.522-4.477-10-10-10h-9.5V60H426z
	 M416,492H96v-20h320V492z M160.197,219.632l54.707,39.443l-52.021,33.52C146.531,300.871,136,317.964,136,336.318V452h-19.5V60H136
	v117.374C136,194.723,145.257,210.862,160.197,219.632z M348.974,292.609l-52.484-33.536l55.164-39.446
	c15.033-8.75,24.346-24.923,24.346-42.344V60h20.5v392H376V336.405C376,317.982,365.413,300.861,348.974,292.609z M262.139,397.105
	c-3.611-2.807-8.666-2.807-12.277,0L179.268,452H156V336.318c0-10.984,6.374-21.206,16.237-26.04
	c0.35-0.171,57.503-36.971,57.503-36.971l16.26,24.69V325c0,5.51,4.49,10,10,10c5.51,0,10-4.49,10-10v-27.079l15.691-24.569
	c0,0,57.64,36.804,57.988,36.974c9.915,4.819,16.321,15.056,16.321,26.08V452h-23.268L262.139,397.105z M300.151,452h-88.302
	L256,417.668L300.151,452z M356,121.41c-13.042,3.836-29.914,7.59-46,7.59c-17.179,0-35.707-9.843-53.625-19.362
	C238.202,99.983,219.41,90,201,90c-15.518,0-31.57,4.492-45,9.724V60h200V121.41z M201,110c13.427,0,29.245,8.403,45.992,17.301
	C267.074,137.969,287.839,149,310,149c16.056,0,32.479-3.182,46-6.816v35.1c0,10.419-5.63,20.085-14.693,25.225
	c-0.304,0.172-68.477,48.896-68.477,48.896c-0.133,0.095-2.029,1.84-2.611,2.752l-14.348,22.467c0,0-14.859-22.562-14.873-22.584
	c-0.654-0.994-1.537-1.914-2.503-2.611c0,0-67.584-48.705-67.889-48.88c-9.009-5.15-14.605-14.797-14.605-25.174v-56.001
	C168.84,115.701,185.583,110,201,110z M416,40H96V20h320V40z"/>
<path d="M256,355c-5.51,0-10,4.479-10,10c0,5.51,4.49,10,10,10c5.51,0,10-4.49,10-10C266,359.479,261.51,355,256,355z"/>
<circle cx="185.75" cy="148.25" r="10"/>
<circle cx="226" cy="148" r="10"/>
<circle cx="216" cy="188" r="10"/>
<circle cx="256" cy="188" r="10"/>
<circle cx="296" cy="188" r="10"/>
<circle cx="256" cy="228" r="10"/>
<g>
</g>
<g>
</g>
<g>
</g>
<g>
</g>
<g>
</g>
<g>
</g>
<g>
</g>
<g>
</g>
<g>
</g>
<g>
</g>
<g>
</g>
<g>
</g>
<g>
</g>
<g>
</g>
<g>
</g>
</svg>
