<svg id="Hotel" height="512" viewBox="0 0 300 300" width="512" xmlns="http://www.w3.org/2000/svg">
	
		<path d="m243.75 150h-50v-81.25c0-3.455-2.798-6.25-6.25-6.25h-8.637-7.725-4.775-7.725-4.775-7.725-4.775-7.725-4.775-7.725-8.638c-3.452 0-6.25 2.795-6.25 6.25v106.25h-50c-3.452 0-6.25 2.795-6.25 6.25v62.5c0 3.455 2.798 6.25 6.25 6.25h18.75 18.75 18.75 25 25 25 18.75 18.75 18.75c3.452 0 6.25-2.795 6.25-6.25v-87.5c0-3.455-2.798-6.25-6.25-6.25zm-168.75 62.5v25h-12.5v-50h43.75v50h-12.5v-25zm106.25 25h-18.75v-25h-25v25h-18.75v-162.5h62.5zm56.25 0h-12.5v-25h-18.75v25h-12.5v-75h43.75z"/>
		<path d="m128.125 118.75h18.75v25h-18.75z"/>
		<path d="m153.125 118.75h18.75v25h-18.75z"/>
		<path d="m128.125 87.5h18.75v25h-18.75z"/>
		<path d="m153.125 87.5h18.75v25h-18.75z"/>
		<path d="m128.125 150h18.75v25h-18.75z"/>
		<path d="m153.125 150h18.75v25h-18.75z"/>
		<path d="m128.125 181.25h18.75v25h-18.75z"/>
		<path d="m153.125 181.25h18.75v25h-18.75z"/>
		<path d="m128.863 62.5-.738-4.523 3.125-3.202-4.319-.66-1.931-4.115-1.931 4.115-4.319.66 3.125 3.202-.738 4.523 3.863-2.135z"/>
		<path d="m133.637 62.5 3.863-2.135 3.863 2.135-.738-4.523 3.125-3.202-4.319-.66-1.931-4.115-1.931 4.115-4.319.66 3.125 3.202z"/>
		<path d="m146.137 62.5 3.863-2.135 3.863 2.135-.738-4.523 3.125-3.202-4.319-.66-1.931-4.115-1.931 4.115-4.319.66 3.125 3.202z"/>
		<path d="m158.637 62.5 3.863-2.135 3.863 2.135-.738-4.523 3.125-3.202-4.319-.66-1.931-4.115-1.931 4.115-4.319.66 3.125 3.202z"/>
		<path d="m171.137 62.5 3.863-2.135 3.863 2.135-.738-4.523 3.125-3.202-4.319-.66-1.931-4.115-1.931 4.115-4.319.66 3.125 3.202z"/>
	
</svg>