<?xml version="1.0" encoding="iso-8859-1"?>
<!-- Generator: Adobe Illustrator 19.0.0, SVG Export Plug-In . SVG Version: 6.00 Build 0)  -->
<svg version="1.1" id="Capa_1" xmlns="http://www.w3.org/2000/svg" xmlns:xlink="http://www.w3.org/1999/xlink" x="0px" y="0px"
	 viewBox="0 0 512 512" style="enable-background:new 0 0 512 512;" xml:space="preserve">
<g>
	<g>
		<path d="M384,247.467H128c-4.71,0-8.533,3.823-8.533,8.533s3.823,8.533,8.533,8.533h256c4.71,0,8.533-3.823,8.533-8.533
			S388.71,247.467,384,247.467z"/>
	</g>
</g>
<g>
	<g>
		<path d="M352.538,159.454c-53.222-53.222-139.844-53.231-193.084,0c-53.231,53.231-53.231,139.853,0,193.084
			c26.615,26.615,61.585,39.927,96.546,39.927s69.931-13.303,96.538-39.927C405.769,299.307,405.769,212.685,352.538,159.454z
			 M340.471,340.48c-46.583,46.575-122.377,46.575-168.951,0c-46.575-46.583-46.575-122.377,0-168.951
			c23.296-23.296,53.888-34.935,84.48-34.935s61.184,11.639,84.471,34.935C387.046,218.112,387.046,293.905,340.471,340.48z"/>
	</g>
</g>
<g>
	<g>
		<path d="M360.866,337.664c-0.742-2.748-2.807-4.949-5.504-5.854c-17.766-5.999-54.298-16.077-99.362-16.077
			s-81.596,10.078-99.362,16.077c-2.697,0.913-4.762,3.106-5.504,5.854c-0.751,2.739-0.077,5.683,1.792,7.825
			c2.091,2.406,4.241,4.762,6.528,7.049c26.615,26.615,61.585,39.927,96.546,39.927s69.931-13.303,96.546-39.927
			c2.287-2.278,4.437-4.642,6.528-7.049C360.943,343.347,361.609,340.412,360.866,337.664z M175.155,343.962
			C193.954,338.688,222.464,332.8,256,332.8s62.046,5.888,80.845,11.162C291.26,385.903,220.732,385.903,175.155,343.962z"/>
	</g>
</g>
<g>
	<g>
		<path d="M359.066,166.511c-2.091-2.406-4.241-4.762-6.528-7.049c-53.231-53.231-139.853-53.231-193.084,0
			c-2.287,2.278-4.437,4.642-6.528,7.049c-1.869,2.142-2.534,5.077-1.792,7.825c0.742,2.748,2.807,4.949,5.504,5.854
			c17.766,5.999,54.298,16.077,99.362,16.077s81.596-10.078,99.354-16.077c2.697-0.913,4.762-3.106,5.504-5.854
			C361.609,171.597,360.934,168.653,359.066,166.511z M256,179.2c-33.536,0-62.046-5.888-80.845-11.162
			c45.577-41.941,116.113-41.941,161.69,0C318.046,173.312,289.536,179.2,256,179.2z"/>
	</g>
</g>
<g>
	<g>
		<path d="M287.539,143.002c-9.634-9.634-17.954-16.478-26.982-22.178c-2.637-1.673-5.956-1.775-8.678-0.265
			c-2.722,1.502-4.412,4.369-4.412,7.475V384c0,3.106,1.69,5.973,4.412,7.475c1.289,0.708,2.705,1.058,4.122,1.058
			c1.587,0,3.166-0.444,4.548-1.314c8.969-5.666,17.289-12.518,26.991-22.221c30.703-30.694,47.607-70.827,47.607-112.998
			C335.147,213.837,318.242,173.705,287.539,143.002z M275.473,356.941c-3.857,3.857-7.458,7.202-10.94,10.163V144.913
			c3.499,2.97,7.1,6.306,10.948,10.163c27.477,27.477,42.607,63.326,42.607,100.932C318.089,293.624,302.95,329.464,275.473,356.941
			z"/>
	</g>
</g>
<g>
	<g>
		<path d="M260.113,120.559c-2.722-1.502-6.05-1.399-8.678,0.265c-9.028,5.709-17.348,12.544-26.982,22.178
			c-30.703,30.694-47.607,70.835-47.607,112.998c0,42.172,16.905,82.295,47.607,112.998c9.626,9.626,17.946,16.469,26.991,22.178
			c1.391,0.879,2.97,1.323,4.557,1.323c1.417,0,2.833-0.35,4.122-1.067c2.722-1.502,4.412-4.369,4.412-7.475V128.034
			C264.533,124.928,262.844,122.061,260.113,120.559z M247.467,367.087c-3.499-2.97-7.091-6.306-10.94-10.155
			C209.05,329.455,193.92,293.615,193.92,256c0-37.606,15.13-73.455,42.607-100.932c3.84-3.849,7.441-7.185,10.94-10.155V367.087z"
			/>
	</g>
</g>
<g>
	<g>
		<path d="M42.667,213.333C19.14,213.333,0,232.474,0,256c0,23.526,19.14,42.667,42.667,42.667c23.526,0,42.667-19.14,42.667-42.667
			C85.333,232.474,66.193,213.333,42.667,213.333z M42.667,281.6c-14.114,0-25.6-11.486-25.6-25.6s11.486-25.6,25.6-25.6
			s25.6,11.486,25.6,25.6S56.781,281.6,42.667,281.6z"/>
	</g>
</g>
<g>
	<g>
		<path d="M469.333,213.333c-23.526,0-42.667,19.14-42.667,42.667c0,23.526,19.14,42.667,42.667,42.667
			C492.86,298.667,512,279.526,512,256C512,232.474,492.86,213.333,469.333,213.333z M469.333,281.6
			c-14.114,0-25.6-11.486-25.6-25.6s11.486-25.6,25.6-25.6s25.6,11.486,25.6,25.6S483.448,281.6,469.333,281.6z"/>
	</g>
</g>
<g>
	<g>
		<path d="M256,426.667c-23.526,0-42.667,19.14-42.667,42.667C213.333,492.86,232.474,512,256,512
			c23.526,0,42.667-19.14,42.667-42.667C298.667,445.807,279.526,426.667,256,426.667z M256,494.933
			c-14.114,0-25.6-11.486-25.6-25.6s11.486-25.6,25.6-25.6s25.6,11.486,25.6,25.6S270.114,494.933,256,494.933z"/>
	</g>
</g>
<g>
	<g>
		<path d="M256,0c-23.526,0-42.667,19.14-42.667,42.667c0,23.526,19.14,42.667,42.667,42.667c23.526,0,42.667-19.14,42.667-42.667
			C298.667,19.14,279.526,0,256,0z M256,68.267c-14.114,0-25.6-11.486-25.6-25.6s11.486-25.6,25.6-25.6s25.6,11.486,25.6,25.6
			S270.114,68.267,256,68.267z"/>
	</g>
</g>
<g>
	<g>
		<path d="M475.068,220.791c-2.799-17.562-7.731-34.756-14.643-51.115c-1.843-4.335-6.852-6.366-11.187-4.531
			c-4.344,1.835-6.374,6.844-4.54,11.187c6.374,15.078,10.923,30.95,13.508,47.155c0.666,4.19,4.292,7.185,8.414,7.185
			c0.444,0,0.896-0.034,1.365-0.111C472.636,229.82,475.81,225.442,475.068,220.791z"/>
	</g>
</g>
<g>
	<g>
		<path d="M431.667,120.499c-11.631-15.061-25.173-28.604-40.243-40.226c-3.738-2.884-9.096-2.193-11.972,1.545
			c-2.876,3.738-2.185,9.096,1.545,11.972c13.909,10.735,26.419,23.228,37.163,37.146c1.681,2.176,4.207,3.319,6.758,3.319
			c1.826,0,3.661-0.572,5.214-1.783C433.86,129.587,434.543,124.228,431.667,120.499z"/>
	</g>
</g>
<g>
	<g>
		<path d="M342.332,51.584c-16.367-6.921-33.562-11.844-51.123-14.643c-4.668-0.768-9.028,2.423-9.771,7.083
			c-0.742,4.659,2.432,9.028,7.083,9.771c16.196,2.577,32.068,7.125,47.155,13.508c1.084,0.461,2.21,0.683,3.319,0.683
			c3.328,0,6.485-1.954,7.868-5.214C348.706,58.428,346.675,53.419,342.332,51.584z"/>
	</g>
</g>
<g>
	<g>
		<path d="M346.863,449.22c-1.843-4.335-6.844-6.357-11.187-4.531c-15.087,6.383-30.95,10.923-47.155,13.508
			c-4.651,0.742-7.825,5.12-7.083,9.771c0.666,4.198,4.292,7.194,8.414,7.194c0.444,0,0.896-0.034,1.357-0.111
			c17.562-2.79,34.765-7.723,51.123-14.643C346.667,458.573,348.698,453.564,346.863,449.22z"/>
	</g>
</g>
<g>
	<g>
		<path d="M430.182,379.443c-3.738-2.884-9.088-2.193-11.972,1.544c-10.743,13.918-23.245,26.419-37.154,37.163
			c-3.729,2.884-4.42,8.243-1.536,11.972c1.681,2.176,4.207,3.319,6.758,3.319c1.826,0,3.661-0.572,5.222-1.792
			c15.061-11.631,28.595-25.165,40.226-40.243C434.603,387.678,433.911,382.319,430.182,379.443z"/>
	</g>
</g>
<g>
	<g>
		<path d="M467.968,281.429c-4.659-0.742-9.028,2.441-9.771,7.083c-2.586,16.205-7.125,32.068-13.508,47.155
			c-1.835,4.344,0.196,9.353,4.54,11.187c1.084,0.461,2.21,0.683,3.319,0.683c3.328,0,6.485-1.954,7.859-5.222
			c6.912-16.35,11.844-33.553,14.643-51.115C475.793,286.549,472.619,282.172,467.968,281.429z"/>
	</g>
</g>
<g>
	<g>
		<path d="M67.302,335.676c-6.374-15.078-10.923-30.95-13.508-47.155c-0.742-4.651-5.111-7.825-9.771-7.083
			c-4.651,0.742-7.825,5.12-7.083,9.771c2.799,17.562,7.731,34.756,14.643,51.115c1.382,3.26,4.54,5.214,7.868,5.214
			c1.109,0,2.236-0.222,3.311-0.674C67.106,345.028,69.137,340.019,67.302,335.676z"/>
	</g>
</g>
<g>
	<g>
		<path d="M131.004,418.202c-13.909-10.735-26.419-23.228-37.163-37.146c-2.884-3.721-8.235-4.429-11.972-1.536
			c-3.729,2.884-4.412,8.243-1.536,11.972c11.631,15.061,25.173,28.604,40.243,40.226c1.553,1.195,3.388,1.775,5.205,1.775
			c2.56,0,5.086-1.135,6.767-3.319C135.424,426.436,134.733,421.077,131.004,418.202z"/>
	</g>
</g>
<g>
	<g>
		<path d="M223.479,458.197c-16.196-2.577-32.068-7.125-47.155-13.508c-4.344-1.826-9.353,0.196-11.187,4.531
			c-1.843,4.344,0.188,9.353,4.531,11.187c16.367,6.921,33.562,11.844,51.123,14.643c0.461,0.077,0.913,0.111,1.357,0.111
			c4.122,0,7.748-2.987,8.414-7.194C231.305,463.309,228.13,458.94,223.479,458.197z"/>
	</g>
</g>
<g>
	<g>
		<path d="M230.571,44.023c-0.742-4.651-5.103-7.842-9.771-7.083c-17.562,2.79-34.765,7.723-51.123,14.643
			c-4.335,1.835-6.366,6.844-4.531,11.187c1.374,3.26,4.531,5.214,7.859,5.214c1.109,0,2.236-0.222,3.328-0.683
			c15.087-6.383,30.95-10.923,47.155-13.508C228.139,53.052,231.313,48.674,230.571,44.023z"/>
	</g>
</g>
<g>
	<g>
		<path d="M132.48,81.877c-2.884-3.729-8.243-4.42-11.972-1.536c-15.061,11.631-28.595,25.165-40.226,40.243
			c-2.876,3.729-2.185,9.088,1.545,11.964c1.553,1.195,3.388,1.775,5.205,1.775c2.551,0,5.077-1.143,6.758-3.311
			c10.743-13.918,23.245-26.419,37.154-37.163C134.673,90.965,135.364,85.606,132.48,81.877z"/>
	</g>
</g>
<g>
	<g>
		<path d="M62.771,165.146c-4.343-1.843-9.352,0.196-11.187,4.531c-6.912,16.35-11.844,33.553-14.643,51.115
			c-0.742,4.651,2.432,9.028,7.083,9.771c0.461,0.077,0.913,0.111,1.357,0.111c4.122,0,7.748-2.995,8.422-7.185
			c2.586-16.205,7.125-32.068,13.508-47.155C69.146,171.989,67.115,166.98,62.771,165.146z"/>
	</g>
</g>
</svg>
